%TF.GenerationSoftware,KiCad,Pcbnew,10.0.1*%
%TF.CreationDate,2026-05-05T14:10:23-06:00*%
%TF.ProjectId,FINAL_PHASE_B,46494e41-4c5f-4504-9841-53455f422e6b,2.0*%
%TF.SameCoordinates,Original*%
%TF.FileFunction,Legend,Top*%
%TF.FilePolarity,Positive*%
%FSLAX46Y46*%
G04 Gerber Fmt 4.6, Leading zero omitted, Abs format (unit mm)*
G04 Created by KiCad (PCBNEW 10.0.1) date 2026-05-05 14:10:23*
%MOMM*%
%LPD*%
G01*
G04 APERTURE LIST*
%ADD10C,0.100000*%
%ADD11C,0.150000*%
%ADD12C,0.254000*%
%ADD13C,0.120000*%
%ADD14C,0.200000*%
%ADD15C,0.000000*%
%ADD16C,0.127000*%
G04 APERTURE END LIST*
D10*
X120445884Y-142201609D02*
X120779217Y-142201609D01*
X120922074Y-142725419D02*
X120445884Y-142725419D01*
X120445884Y-142725419D02*
X120445884Y-141725419D01*
X120445884Y-141725419D02*
X120922074Y-141725419D01*
X121350646Y-142725419D02*
X121350646Y-141725419D01*
X121350646Y-141725419D02*
X121922074Y-142725419D01*
X121922074Y-142725419D02*
X121922074Y-141725419D01*
X122969693Y-142630180D02*
X122922074Y-142677800D01*
X122922074Y-142677800D02*
X122779217Y-142725419D01*
X122779217Y-142725419D02*
X122683979Y-142725419D01*
X122683979Y-142725419D02*
X122541122Y-142677800D01*
X122541122Y-142677800D02*
X122445884Y-142582561D01*
X122445884Y-142582561D02*
X122398265Y-142487323D01*
X122398265Y-142487323D02*
X122350646Y-142296847D01*
X122350646Y-142296847D02*
X122350646Y-142153990D01*
X122350646Y-142153990D02*
X122398265Y-141963514D01*
X122398265Y-141963514D02*
X122445884Y-141868276D01*
X122445884Y-141868276D02*
X122541122Y-141773038D01*
X122541122Y-141773038D02*
X122683979Y-141725419D01*
X122683979Y-141725419D02*
X122779217Y-141725419D01*
X122779217Y-141725419D02*
X122922074Y-141773038D01*
X122922074Y-141773038D02*
X122969693Y-141820657D01*
X123588741Y-141725419D02*
X123779217Y-141725419D01*
X123779217Y-141725419D02*
X123874455Y-141773038D01*
X123874455Y-141773038D02*
X123969693Y-141868276D01*
X123969693Y-141868276D02*
X124017312Y-142058752D01*
X124017312Y-142058752D02*
X124017312Y-142392085D01*
X124017312Y-142392085D02*
X123969693Y-142582561D01*
X123969693Y-142582561D02*
X123874455Y-142677800D01*
X123874455Y-142677800D02*
X123779217Y-142725419D01*
X123779217Y-142725419D02*
X123588741Y-142725419D01*
X123588741Y-142725419D02*
X123493503Y-142677800D01*
X123493503Y-142677800D02*
X123398265Y-142582561D01*
X123398265Y-142582561D02*
X123350646Y-142392085D01*
X123350646Y-142392085D02*
X123350646Y-142058752D01*
X123350646Y-142058752D02*
X123398265Y-141868276D01*
X123398265Y-141868276D02*
X123493503Y-141773038D01*
X123493503Y-141773038D02*
X123588741Y-141725419D01*
X124445884Y-142725419D02*
X124445884Y-141725419D01*
X124445884Y-141725419D02*
X124683979Y-141725419D01*
X124683979Y-141725419D02*
X124826836Y-141773038D01*
X124826836Y-141773038D02*
X124922074Y-141868276D01*
X124922074Y-141868276D02*
X124969693Y-141963514D01*
X124969693Y-141963514D02*
X125017312Y-142153990D01*
X125017312Y-142153990D02*
X125017312Y-142296847D01*
X125017312Y-142296847D02*
X124969693Y-142487323D01*
X124969693Y-142487323D02*
X124922074Y-142582561D01*
X124922074Y-142582561D02*
X124826836Y-142677800D01*
X124826836Y-142677800D02*
X124683979Y-142725419D01*
X124683979Y-142725419D02*
X124445884Y-142725419D01*
X125445884Y-142201609D02*
X125779217Y-142201609D01*
X125922074Y-142725419D02*
X125445884Y-142725419D01*
X125445884Y-142725419D02*
X125445884Y-141725419D01*
X125445884Y-141725419D02*
X125922074Y-141725419D01*
X126922074Y-142725419D02*
X126588741Y-142249228D01*
X126350646Y-142725419D02*
X126350646Y-141725419D01*
X126350646Y-141725419D02*
X126731598Y-141725419D01*
X126731598Y-141725419D02*
X126826836Y-141773038D01*
X126826836Y-141773038D02*
X126874455Y-141820657D01*
X126874455Y-141820657D02*
X126922074Y-141915895D01*
X126922074Y-141915895D02*
X126922074Y-142058752D01*
X126922074Y-142058752D02*
X126874455Y-142153990D01*
X126874455Y-142153990D02*
X126826836Y-142201609D01*
X126826836Y-142201609D02*
X126731598Y-142249228D01*
X126731598Y-142249228D02*
X126350646Y-142249228D01*
X121207884Y-109584609D02*
X121541217Y-109584609D01*
X121684074Y-110108419D02*
X121207884Y-110108419D01*
X121207884Y-110108419D02*
X121207884Y-109108419D01*
X121207884Y-109108419D02*
X121684074Y-109108419D01*
X122112646Y-110108419D02*
X122112646Y-109108419D01*
X122112646Y-109108419D02*
X122684074Y-110108419D01*
X122684074Y-110108419D02*
X122684074Y-109108419D01*
X123731693Y-110013180D02*
X123684074Y-110060800D01*
X123684074Y-110060800D02*
X123541217Y-110108419D01*
X123541217Y-110108419D02*
X123445979Y-110108419D01*
X123445979Y-110108419D02*
X123303122Y-110060800D01*
X123303122Y-110060800D02*
X123207884Y-109965561D01*
X123207884Y-109965561D02*
X123160265Y-109870323D01*
X123160265Y-109870323D02*
X123112646Y-109679847D01*
X123112646Y-109679847D02*
X123112646Y-109536990D01*
X123112646Y-109536990D02*
X123160265Y-109346514D01*
X123160265Y-109346514D02*
X123207884Y-109251276D01*
X123207884Y-109251276D02*
X123303122Y-109156038D01*
X123303122Y-109156038D02*
X123445979Y-109108419D01*
X123445979Y-109108419D02*
X123541217Y-109108419D01*
X123541217Y-109108419D02*
X123684074Y-109156038D01*
X123684074Y-109156038D02*
X123731693Y-109203657D01*
X124350741Y-109108419D02*
X124541217Y-109108419D01*
X124541217Y-109108419D02*
X124636455Y-109156038D01*
X124636455Y-109156038D02*
X124731693Y-109251276D01*
X124731693Y-109251276D02*
X124779312Y-109441752D01*
X124779312Y-109441752D02*
X124779312Y-109775085D01*
X124779312Y-109775085D02*
X124731693Y-109965561D01*
X124731693Y-109965561D02*
X124636455Y-110060800D01*
X124636455Y-110060800D02*
X124541217Y-110108419D01*
X124541217Y-110108419D02*
X124350741Y-110108419D01*
X124350741Y-110108419D02*
X124255503Y-110060800D01*
X124255503Y-110060800D02*
X124160265Y-109965561D01*
X124160265Y-109965561D02*
X124112646Y-109775085D01*
X124112646Y-109775085D02*
X124112646Y-109441752D01*
X124112646Y-109441752D02*
X124160265Y-109251276D01*
X124160265Y-109251276D02*
X124255503Y-109156038D01*
X124255503Y-109156038D02*
X124350741Y-109108419D01*
X125207884Y-110108419D02*
X125207884Y-109108419D01*
X125207884Y-109108419D02*
X125445979Y-109108419D01*
X125445979Y-109108419D02*
X125588836Y-109156038D01*
X125588836Y-109156038D02*
X125684074Y-109251276D01*
X125684074Y-109251276D02*
X125731693Y-109346514D01*
X125731693Y-109346514D02*
X125779312Y-109536990D01*
X125779312Y-109536990D02*
X125779312Y-109679847D01*
X125779312Y-109679847D02*
X125731693Y-109870323D01*
X125731693Y-109870323D02*
X125684074Y-109965561D01*
X125684074Y-109965561D02*
X125588836Y-110060800D01*
X125588836Y-110060800D02*
X125445979Y-110108419D01*
X125445979Y-110108419D02*
X125207884Y-110108419D01*
X126207884Y-109584609D02*
X126541217Y-109584609D01*
X126684074Y-110108419D02*
X126207884Y-110108419D01*
X126207884Y-110108419D02*
X126207884Y-109108419D01*
X126207884Y-109108419D02*
X126684074Y-109108419D01*
X127684074Y-110108419D02*
X127350741Y-109632228D01*
X127112646Y-110108419D02*
X127112646Y-109108419D01*
X127112646Y-109108419D02*
X127493598Y-109108419D01*
X127493598Y-109108419D02*
X127588836Y-109156038D01*
X127588836Y-109156038D02*
X127636455Y-109203657D01*
X127636455Y-109203657D02*
X127684074Y-109298895D01*
X127684074Y-109298895D02*
X127684074Y-109441752D01*
X127684074Y-109441752D02*
X127636455Y-109536990D01*
X127636455Y-109536990D02*
X127588836Y-109584609D01*
X127588836Y-109584609D02*
X127493598Y-109632228D01*
X127493598Y-109632228D02*
X127112646Y-109632228D01*
X127476265Y-95296760D02*
X127952455Y-95296760D01*
X127381027Y-95582475D02*
X127714360Y-94582475D01*
X127714360Y-94582475D02*
X128047693Y-95582475D01*
X128857217Y-95582475D02*
X128381027Y-95582475D01*
X128381027Y-95582475D02*
X128381027Y-94582475D01*
X129190551Y-95582475D02*
X129190551Y-94582475D01*
X130428646Y-95582475D02*
X130428646Y-94582475D01*
X130428646Y-94582475D02*
X130761979Y-95296760D01*
X130761979Y-95296760D02*
X131095312Y-94582475D01*
X131095312Y-94582475D02*
X131095312Y-95582475D01*
X132666741Y-95058665D02*
X132809598Y-95106284D01*
X132809598Y-95106284D02*
X132857217Y-95153903D01*
X132857217Y-95153903D02*
X132904836Y-95249141D01*
X132904836Y-95249141D02*
X132904836Y-95391998D01*
X132904836Y-95391998D02*
X132857217Y-95487236D01*
X132857217Y-95487236D02*
X132809598Y-95534856D01*
X132809598Y-95534856D02*
X132714360Y-95582475D01*
X132714360Y-95582475D02*
X132333408Y-95582475D01*
X132333408Y-95582475D02*
X132333408Y-94582475D01*
X132333408Y-94582475D02*
X132666741Y-94582475D01*
X132666741Y-94582475D02*
X132761979Y-94630094D01*
X132761979Y-94630094D02*
X132809598Y-94677713D01*
X132809598Y-94677713D02*
X132857217Y-94772951D01*
X132857217Y-94772951D02*
X132857217Y-94868189D01*
X132857217Y-94868189D02*
X132809598Y-94963427D01*
X132809598Y-94963427D02*
X132761979Y-95011046D01*
X132761979Y-95011046D02*
X132666741Y-95058665D01*
X132666741Y-95058665D02*
X132333408Y-95058665D01*
X133333408Y-95058665D02*
X133666741Y-95058665D01*
X133809598Y-95582475D02*
X133333408Y-95582475D01*
X133333408Y-95582475D02*
X133333408Y-94582475D01*
X133333408Y-94582475D02*
X133809598Y-94582475D01*
X134238170Y-95582475D02*
X134238170Y-94582475D01*
X134238170Y-95058665D02*
X134809598Y-95058665D01*
X134809598Y-95582475D02*
X134809598Y-94582475D01*
X135619122Y-95058665D02*
X135761979Y-95106284D01*
X135761979Y-95106284D02*
X135809598Y-95153903D01*
X135809598Y-95153903D02*
X135857217Y-95249141D01*
X135857217Y-95249141D02*
X135857217Y-95391998D01*
X135857217Y-95391998D02*
X135809598Y-95487236D01*
X135809598Y-95487236D02*
X135761979Y-95534856D01*
X135761979Y-95534856D02*
X135666741Y-95582475D01*
X135666741Y-95582475D02*
X135285789Y-95582475D01*
X135285789Y-95582475D02*
X135285789Y-94582475D01*
X135285789Y-94582475D02*
X135619122Y-94582475D01*
X135619122Y-94582475D02*
X135714360Y-94630094D01*
X135714360Y-94630094D02*
X135761979Y-94677713D01*
X135761979Y-94677713D02*
X135809598Y-94772951D01*
X135809598Y-94772951D02*
X135809598Y-94868189D01*
X135809598Y-94868189D02*
X135761979Y-94963427D01*
X135761979Y-94963427D02*
X135714360Y-95011046D01*
X135714360Y-95011046D02*
X135619122Y-95058665D01*
X135619122Y-95058665D02*
X135285789Y-95058665D01*
X136285789Y-95058665D02*
X136619122Y-95058665D01*
X136761979Y-95582475D02*
X136285789Y-95582475D01*
X136285789Y-95582475D02*
X136285789Y-94582475D01*
X136285789Y-94582475D02*
X136761979Y-94582475D01*
X137190551Y-95582475D02*
X137190551Y-94582475D01*
X137190551Y-95058665D02*
X137761979Y-95058665D01*
X137761979Y-95582475D02*
X137761979Y-94582475D01*
X138190551Y-95296760D02*
X138666741Y-95296760D01*
X138095313Y-95582475D02*
X138428646Y-94582475D01*
X138428646Y-94582475D02*
X138761979Y-95582475D01*
X139095313Y-95582475D02*
X139095313Y-94582475D01*
X139095313Y-94582475D02*
X139666741Y-95582475D01*
X139666741Y-95582475D02*
X139666741Y-94582475D01*
X140142932Y-95582475D02*
X140142932Y-94582475D01*
X127523884Y-96668609D02*
X127857217Y-96668609D01*
X128000074Y-97192419D02*
X127523884Y-97192419D01*
X127523884Y-97192419D02*
X127523884Y-96192419D01*
X127523884Y-96192419D02*
X128000074Y-96192419D01*
X128428646Y-97192419D02*
X128428646Y-96192419D01*
X128428646Y-96192419D02*
X128761979Y-96906704D01*
X128761979Y-96906704D02*
X129095312Y-96192419D01*
X129095312Y-96192419D02*
X129095312Y-97192419D01*
X129904836Y-96668609D02*
X130047693Y-96716228D01*
X130047693Y-96716228D02*
X130095312Y-96763847D01*
X130095312Y-96763847D02*
X130142931Y-96859085D01*
X130142931Y-96859085D02*
X130142931Y-97001942D01*
X130142931Y-97001942D02*
X130095312Y-97097180D01*
X130095312Y-97097180D02*
X130047693Y-97144800D01*
X130047693Y-97144800D02*
X129952455Y-97192419D01*
X129952455Y-97192419D02*
X129571503Y-97192419D01*
X129571503Y-97192419D02*
X129571503Y-96192419D01*
X129571503Y-96192419D02*
X129904836Y-96192419D01*
X129904836Y-96192419D02*
X130000074Y-96240038D01*
X130000074Y-96240038D02*
X130047693Y-96287657D01*
X130047693Y-96287657D02*
X130095312Y-96382895D01*
X130095312Y-96382895D02*
X130095312Y-96478133D01*
X130095312Y-96478133D02*
X130047693Y-96573371D01*
X130047693Y-96573371D02*
X130000074Y-96620990D01*
X130000074Y-96620990D02*
X129904836Y-96668609D01*
X129904836Y-96668609D02*
X129571503Y-96668609D01*
X130571503Y-96668609D02*
X130904836Y-96668609D01*
X131047693Y-97192419D02*
X130571503Y-97192419D01*
X130571503Y-97192419D02*
X130571503Y-96192419D01*
X130571503Y-96192419D02*
X131047693Y-96192419D01*
X131476265Y-97192419D02*
X131476265Y-96192419D01*
X131476265Y-96192419D02*
X131714360Y-96192419D01*
X131714360Y-96192419D02*
X131857217Y-96240038D01*
X131857217Y-96240038D02*
X131952455Y-96335276D01*
X131952455Y-96335276D02*
X132000074Y-96430514D01*
X132000074Y-96430514D02*
X132047693Y-96620990D01*
X132047693Y-96620990D02*
X132047693Y-96763847D01*
X132047693Y-96763847D02*
X132000074Y-96954323D01*
X132000074Y-96954323D02*
X131952455Y-97049561D01*
X131952455Y-97049561D02*
X131857217Y-97144800D01*
X131857217Y-97144800D02*
X131714360Y-97192419D01*
X131714360Y-97192419D02*
X131476265Y-97192419D01*
X132476265Y-96668609D02*
X132809598Y-96668609D01*
X132952455Y-97192419D02*
X132476265Y-97192419D01*
X132476265Y-97192419D02*
X132476265Y-96192419D01*
X132476265Y-96192419D02*
X132952455Y-96192419D01*
X133381027Y-97192419D02*
X133381027Y-96192419D01*
X133381027Y-96192419D02*
X133619122Y-96192419D01*
X133619122Y-96192419D02*
X133761979Y-96240038D01*
X133761979Y-96240038D02*
X133857217Y-96335276D01*
X133857217Y-96335276D02*
X133904836Y-96430514D01*
X133904836Y-96430514D02*
X133952455Y-96620990D01*
X133952455Y-96620990D02*
X133952455Y-96763847D01*
X133952455Y-96763847D02*
X133904836Y-96954323D01*
X133904836Y-96954323D02*
X133857217Y-97049561D01*
X133857217Y-97049561D02*
X133761979Y-97144800D01*
X133761979Y-97144800D02*
X133619122Y-97192419D01*
X133619122Y-97192419D02*
X133381027Y-97192419D01*
X135095313Y-97144800D02*
X135238170Y-97192419D01*
X135238170Y-97192419D02*
X135476265Y-97192419D01*
X135476265Y-97192419D02*
X135571503Y-97144800D01*
X135571503Y-97144800D02*
X135619122Y-97097180D01*
X135619122Y-97097180D02*
X135666741Y-97001942D01*
X135666741Y-97001942D02*
X135666741Y-96906704D01*
X135666741Y-96906704D02*
X135619122Y-96811466D01*
X135619122Y-96811466D02*
X135571503Y-96763847D01*
X135571503Y-96763847D02*
X135476265Y-96716228D01*
X135476265Y-96716228D02*
X135285789Y-96668609D01*
X135285789Y-96668609D02*
X135190551Y-96620990D01*
X135190551Y-96620990D02*
X135142932Y-96573371D01*
X135142932Y-96573371D02*
X135095313Y-96478133D01*
X135095313Y-96478133D02*
X135095313Y-96382895D01*
X135095313Y-96382895D02*
X135142932Y-96287657D01*
X135142932Y-96287657D02*
X135190551Y-96240038D01*
X135190551Y-96240038D02*
X135285789Y-96192419D01*
X135285789Y-96192419D02*
X135523884Y-96192419D01*
X135523884Y-96192419D02*
X135666741Y-96240038D01*
X136285789Y-96716228D02*
X136285789Y-97192419D01*
X135952456Y-96192419D02*
X136285789Y-96716228D01*
X136285789Y-96716228D02*
X136619122Y-96192419D01*
X136904837Y-97144800D02*
X137047694Y-97192419D01*
X137047694Y-97192419D02*
X137285789Y-97192419D01*
X137285789Y-97192419D02*
X137381027Y-97144800D01*
X137381027Y-97144800D02*
X137428646Y-97097180D01*
X137428646Y-97097180D02*
X137476265Y-97001942D01*
X137476265Y-97001942D02*
X137476265Y-96906704D01*
X137476265Y-96906704D02*
X137428646Y-96811466D01*
X137428646Y-96811466D02*
X137381027Y-96763847D01*
X137381027Y-96763847D02*
X137285789Y-96716228D01*
X137285789Y-96716228D02*
X137095313Y-96668609D01*
X137095313Y-96668609D02*
X137000075Y-96620990D01*
X137000075Y-96620990D02*
X136952456Y-96573371D01*
X136952456Y-96573371D02*
X136904837Y-96478133D01*
X136904837Y-96478133D02*
X136904837Y-96382895D01*
X136904837Y-96382895D02*
X136952456Y-96287657D01*
X136952456Y-96287657D02*
X137000075Y-96240038D01*
X137000075Y-96240038D02*
X137095313Y-96192419D01*
X137095313Y-96192419D02*
X137333408Y-96192419D01*
X137333408Y-96192419D02*
X137476265Y-96240038D01*
X131542455Y-145255752D02*
X131542455Y-145922419D01*
X131113884Y-145255752D02*
X131113884Y-145779561D01*
X131113884Y-145779561D02*
X131161503Y-145874800D01*
X131161503Y-145874800D02*
X131256741Y-145922419D01*
X131256741Y-145922419D02*
X131399598Y-145922419D01*
X131399598Y-145922419D02*
X131494836Y-145874800D01*
X131494836Y-145874800D02*
X131542455Y-145827180D01*
X132018646Y-145922419D02*
X132018646Y-144922419D01*
X132018646Y-144922419D02*
X132399598Y-144922419D01*
X132399598Y-144922419D02*
X132494836Y-144970038D01*
X132494836Y-144970038D02*
X132542455Y-145017657D01*
X132542455Y-145017657D02*
X132590074Y-145112895D01*
X132590074Y-145112895D02*
X132590074Y-145255752D01*
X132590074Y-145255752D02*
X132542455Y-145350990D01*
X132542455Y-145350990D02*
X132494836Y-145398609D01*
X132494836Y-145398609D02*
X132399598Y-145446228D01*
X132399598Y-145446228D02*
X132018646Y-145446228D01*
X134113884Y-145398609D02*
X134256741Y-145446228D01*
X134256741Y-145446228D02*
X134304360Y-145493847D01*
X134304360Y-145493847D02*
X134351979Y-145589085D01*
X134351979Y-145589085D02*
X134351979Y-145731942D01*
X134351979Y-145731942D02*
X134304360Y-145827180D01*
X134304360Y-145827180D02*
X134256741Y-145874800D01*
X134256741Y-145874800D02*
X134161503Y-145922419D01*
X134161503Y-145922419D02*
X133780551Y-145922419D01*
X133780551Y-145922419D02*
X133780551Y-144922419D01*
X133780551Y-144922419D02*
X134113884Y-144922419D01*
X134113884Y-144922419D02*
X134209122Y-144970038D01*
X134209122Y-144970038D02*
X134256741Y-145017657D01*
X134256741Y-145017657D02*
X134304360Y-145112895D01*
X134304360Y-145112895D02*
X134304360Y-145208133D01*
X134304360Y-145208133D02*
X134256741Y-145303371D01*
X134256741Y-145303371D02*
X134209122Y-145350990D01*
X134209122Y-145350990D02*
X134113884Y-145398609D01*
X134113884Y-145398609D02*
X133780551Y-145398609D01*
X134971027Y-144922419D02*
X135161503Y-144922419D01*
X135161503Y-144922419D02*
X135256741Y-144970038D01*
X135256741Y-144970038D02*
X135351979Y-145065276D01*
X135351979Y-145065276D02*
X135399598Y-145255752D01*
X135399598Y-145255752D02*
X135399598Y-145589085D01*
X135399598Y-145589085D02*
X135351979Y-145779561D01*
X135351979Y-145779561D02*
X135256741Y-145874800D01*
X135256741Y-145874800D02*
X135161503Y-145922419D01*
X135161503Y-145922419D02*
X134971027Y-145922419D01*
X134971027Y-145922419D02*
X134875789Y-145874800D01*
X134875789Y-145874800D02*
X134780551Y-145779561D01*
X134780551Y-145779561D02*
X134732932Y-145589085D01*
X134732932Y-145589085D02*
X134732932Y-145255752D01*
X134732932Y-145255752D02*
X134780551Y-145065276D01*
X134780551Y-145065276D02*
X134875789Y-144970038D01*
X134875789Y-144970038D02*
X134971027Y-144922419D01*
X136018646Y-144922419D02*
X136209122Y-144922419D01*
X136209122Y-144922419D02*
X136304360Y-144970038D01*
X136304360Y-144970038D02*
X136399598Y-145065276D01*
X136399598Y-145065276D02*
X136447217Y-145255752D01*
X136447217Y-145255752D02*
X136447217Y-145589085D01*
X136447217Y-145589085D02*
X136399598Y-145779561D01*
X136399598Y-145779561D02*
X136304360Y-145874800D01*
X136304360Y-145874800D02*
X136209122Y-145922419D01*
X136209122Y-145922419D02*
X136018646Y-145922419D01*
X136018646Y-145922419D02*
X135923408Y-145874800D01*
X135923408Y-145874800D02*
X135828170Y-145779561D01*
X135828170Y-145779561D02*
X135780551Y-145589085D01*
X135780551Y-145589085D02*
X135780551Y-145255752D01*
X135780551Y-145255752D02*
X135828170Y-145065276D01*
X135828170Y-145065276D02*
X135923408Y-144970038D01*
X135923408Y-144970038D02*
X136018646Y-144922419D01*
X136732932Y-144922419D02*
X137304360Y-144922419D01*
X137018646Y-145922419D02*
X137018646Y-144922419D01*
X139353027Y-102418475D02*
X139686360Y-103418475D01*
X139686360Y-103418475D02*
X140019693Y-102418475D01*
X140543503Y-102418475D02*
X140733979Y-102418475D01*
X140733979Y-102418475D02*
X140829217Y-102466094D01*
X140829217Y-102466094D02*
X140924455Y-102561332D01*
X140924455Y-102561332D02*
X140972074Y-102751808D01*
X140972074Y-102751808D02*
X140972074Y-103085141D01*
X140972074Y-103085141D02*
X140924455Y-103275617D01*
X140924455Y-103275617D02*
X140829217Y-103370856D01*
X140829217Y-103370856D02*
X140733979Y-103418475D01*
X140733979Y-103418475D02*
X140543503Y-103418475D01*
X140543503Y-103418475D02*
X140448265Y-103370856D01*
X140448265Y-103370856D02*
X140353027Y-103275617D01*
X140353027Y-103275617D02*
X140305408Y-103085141D01*
X140305408Y-103085141D02*
X140305408Y-102751808D01*
X140305408Y-102751808D02*
X140353027Y-102561332D01*
X140353027Y-102561332D02*
X140448265Y-102466094D01*
X140448265Y-102466094D02*
X140543503Y-102418475D01*
X141876836Y-103418475D02*
X141400646Y-103418475D01*
X141400646Y-103418475D02*
X141400646Y-102418475D01*
X142067313Y-102418475D02*
X142638741Y-102418475D01*
X142353027Y-103418475D02*
X142353027Y-102418475D01*
X142924456Y-103132760D02*
X143400646Y-103132760D01*
X142829218Y-103418475D02*
X143162551Y-102418475D01*
X143162551Y-102418475D02*
X143495884Y-103418475D01*
X144353027Y-102466094D02*
X144257789Y-102418475D01*
X144257789Y-102418475D02*
X144114932Y-102418475D01*
X144114932Y-102418475D02*
X143972075Y-102466094D01*
X143972075Y-102466094D02*
X143876837Y-102561332D01*
X143876837Y-102561332D02*
X143829218Y-102656570D01*
X143829218Y-102656570D02*
X143781599Y-102847046D01*
X143781599Y-102847046D02*
X143781599Y-102989903D01*
X143781599Y-102989903D02*
X143829218Y-103180379D01*
X143829218Y-103180379D02*
X143876837Y-103275617D01*
X143876837Y-103275617D02*
X143972075Y-103370856D01*
X143972075Y-103370856D02*
X144114932Y-103418475D01*
X144114932Y-103418475D02*
X144210170Y-103418475D01*
X144210170Y-103418475D02*
X144353027Y-103370856D01*
X144353027Y-103370856D02*
X144400646Y-103323236D01*
X144400646Y-103323236D02*
X144400646Y-102989903D01*
X144400646Y-102989903D02*
X144210170Y-102989903D01*
X144829218Y-102894665D02*
X145162551Y-102894665D01*
X145305408Y-103418475D02*
X144829218Y-103418475D01*
X144829218Y-103418475D02*
X144829218Y-102418475D01*
X144829218Y-102418475D02*
X145305408Y-102418475D01*
X140067312Y-105028419D02*
X139733979Y-104552228D01*
X139495884Y-105028419D02*
X139495884Y-104028419D01*
X139495884Y-104028419D02*
X139876836Y-104028419D01*
X139876836Y-104028419D02*
X139972074Y-104076038D01*
X139972074Y-104076038D02*
X140019693Y-104123657D01*
X140019693Y-104123657D02*
X140067312Y-104218895D01*
X140067312Y-104218895D02*
X140067312Y-104361752D01*
X140067312Y-104361752D02*
X140019693Y-104456990D01*
X140019693Y-104456990D02*
X139972074Y-104504609D01*
X139972074Y-104504609D02*
X139876836Y-104552228D01*
X139876836Y-104552228D02*
X139495884Y-104552228D01*
X140495884Y-104504609D02*
X140829217Y-104504609D01*
X140972074Y-105028419D02*
X140495884Y-105028419D01*
X140495884Y-105028419D02*
X140495884Y-104028419D01*
X140495884Y-104028419D02*
X140972074Y-104028419D01*
X141924455Y-104076038D02*
X141829217Y-104028419D01*
X141829217Y-104028419D02*
X141686360Y-104028419D01*
X141686360Y-104028419D02*
X141543503Y-104076038D01*
X141543503Y-104076038D02*
X141448265Y-104171276D01*
X141448265Y-104171276D02*
X141400646Y-104266514D01*
X141400646Y-104266514D02*
X141353027Y-104456990D01*
X141353027Y-104456990D02*
X141353027Y-104599847D01*
X141353027Y-104599847D02*
X141400646Y-104790323D01*
X141400646Y-104790323D02*
X141448265Y-104885561D01*
X141448265Y-104885561D02*
X141543503Y-104980800D01*
X141543503Y-104980800D02*
X141686360Y-105028419D01*
X141686360Y-105028419D02*
X141781598Y-105028419D01*
X141781598Y-105028419D02*
X141924455Y-104980800D01*
X141924455Y-104980800D02*
X141972074Y-104933180D01*
X141972074Y-104933180D02*
X141972074Y-104599847D01*
X141972074Y-104599847D02*
X141781598Y-104599847D01*
X142400646Y-104028419D02*
X142400646Y-104837942D01*
X142400646Y-104837942D02*
X142448265Y-104933180D01*
X142448265Y-104933180D02*
X142495884Y-104980800D01*
X142495884Y-104980800D02*
X142591122Y-105028419D01*
X142591122Y-105028419D02*
X142781598Y-105028419D01*
X142781598Y-105028419D02*
X142876836Y-104980800D01*
X142876836Y-104980800D02*
X142924455Y-104933180D01*
X142924455Y-104933180D02*
X142972074Y-104837942D01*
X142972074Y-104837942D02*
X142972074Y-104028419D01*
X143924455Y-105028419D02*
X143448265Y-105028419D01*
X143448265Y-105028419D02*
X143448265Y-104028419D01*
X144210170Y-104742704D02*
X144686360Y-104742704D01*
X144114932Y-105028419D02*
X144448265Y-104028419D01*
X144448265Y-104028419D02*
X144781598Y-105028419D01*
X144972075Y-104028419D02*
X145543503Y-104028419D01*
X145257789Y-105028419D02*
X145257789Y-104028419D01*
X146067313Y-104028419D02*
X146257789Y-104028419D01*
X146257789Y-104028419D02*
X146353027Y-104076038D01*
X146353027Y-104076038D02*
X146448265Y-104171276D01*
X146448265Y-104171276D02*
X146495884Y-104361752D01*
X146495884Y-104361752D02*
X146495884Y-104695085D01*
X146495884Y-104695085D02*
X146448265Y-104885561D01*
X146448265Y-104885561D02*
X146353027Y-104980800D01*
X146353027Y-104980800D02*
X146257789Y-105028419D01*
X146257789Y-105028419D02*
X146067313Y-105028419D01*
X146067313Y-105028419D02*
X145972075Y-104980800D01*
X145972075Y-104980800D02*
X145876837Y-104885561D01*
X145876837Y-104885561D02*
X145829218Y-104695085D01*
X145829218Y-104695085D02*
X145829218Y-104361752D01*
X145829218Y-104361752D02*
X145876837Y-104171276D01*
X145876837Y-104171276D02*
X145972075Y-104076038D01*
X145972075Y-104076038D02*
X146067313Y-104028419D01*
X147495884Y-105028419D02*
X147162551Y-104552228D01*
X146924456Y-105028419D02*
X146924456Y-104028419D01*
X146924456Y-104028419D02*
X147305408Y-104028419D01*
X147305408Y-104028419D02*
X147400646Y-104076038D01*
X147400646Y-104076038D02*
X147448265Y-104123657D01*
X147448265Y-104123657D02*
X147495884Y-104218895D01*
X147495884Y-104218895D02*
X147495884Y-104361752D01*
X147495884Y-104361752D02*
X147448265Y-104456990D01*
X147448265Y-104456990D02*
X147400646Y-104504609D01*
X147400646Y-104504609D02*
X147305408Y-104552228D01*
X147305408Y-104552228D02*
X146924456Y-104552228D01*
X147876837Y-104980800D02*
X148019694Y-105028419D01*
X148019694Y-105028419D02*
X148257789Y-105028419D01*
X148257789Y-105028419D02*
X148353027Y-104980800D01*
X148353027Y-104980800D02*
X148400646Y-104933180D01*
X148400646Y-104933180D02*
X148448265Y-104837942D01*
X148448265Y-104837942D02*
X148448265Y-104742704D01*
X148448265Y-104742704D02*
X148400646Y-104647466D01*
X148400646Y-104647466D02*
X148353027Y-104599847D01*
X148353027Y-104599847D02*
X148257789Y-104552228D01*
X148257789Y-104552228D02*
X148067313Y-104504609D01*
X148067313Y-104504609D02*
X147972075Y-104456990D01*
X147972075Y-104456990D02*
X147924456Y-104409371D01*
X147924456Y-104409371D02*
X147876837Y-104314133D01*
X147876837Y-104314133D02*
X147876837Y-104218895D01*
X147876837Y-104218895D02*
X147924456Y-104123657D01*
X147924456Y-104123657D02*
X147972075Y-104076038D01*
X147972075Y-104076038D02*
X148067313Y-104028419D01*
X148067313Y-104028419D02*
X148305408Y-104028419D01*
X148305408Y-104028419D02*
X148448265Y-104076038D01*
X152449884Y-141096419D02*
X152449884Y-140096419D01*
X152926074Y-141096419D02*
X152926074Y-140096419D01*
X152926074Y-140096419D02*
X153259407Y-140810704D01*
X153259407Y-140810704D02*
X153592740Y-140096419D01*
X153592740Y-140096419D02*
X153592740Y-141096419D01*
X154068931Y-140096419D02*
X154068931Y-140905942D01*
X154068931Y-140905942D02*
X154116550Y-141001180D01*
X154116550Y-141001180D02*
X154164169Y-141048800D01*
X154164169Y-141048800D02*
X154259407Y-141096419D01*
X154259407Y-141096419D02*
X154449883Y-141096419D01*
X154449883Y-141096419D02*
X154545121Y-141048800D01*
X154545121Y-141048800D02*
X154592740Y-141001180D01*
X154592740Y-141001180D02*
X154640359Y-140905942D01*
X154640359Y-140905942D02*
X154640359Y-140096419D01*
X161006455Y-132555752D02*
X161006455Y-133222419D01*
X160577884Y-132555752D02*
X160577884Y-133079561D01*
X160577884Y-133079561D02*
X160625503Y-133174800D01*
X160625503Y-133174800D02*
X160720741Y-133222419D01*
X160720741Y-133222419D02*
X160863598Y-133222419D01*
X160863598Y-133222419D02*
X160958836Y-133174800D01*
X160958836Y-133174800D02*
X161006455Y-133127180D01*
X161482646Y-133222419D02*
X161482646Y-132222419D01*
X161482646Y-132222419D02*
X161863598Y-132222419D01*
X161863598Y-132222419D02*
X161958836Y-132270038D01*
X161958836Y-132270038D02*
X162006455Y-132317657D01*
X162006455Y-132317657D02*
X162054074Y-132412895D01*
X162054074Y-132412895D02*
X162054074Y-132555752D01*
X162054074Y-132555752D02*
X162006455Y-132650990D01*
X162006455Y-132650990D02*
X161958836Y-132698609D01*
X161958836Y-132698609D02*
X161863598Y-132746228D01*
X161863598Y-132746228D02*
X161482646Y-132746228D01*
X163815979Y-133222419D02*
X163482646Y-132746228D01*
X163244551Y-133222419D02*
X163244551Y-132222419D01*
X163244551Y-132222419D02*
X163625503Y-132222419D01*
X163625503Y-132222419D02*
X163720741Y-132270038D01*
X163720741Y-132270038D02*
X163768360Y-132317657D01*
X163768360Y-132317657D02*
X163815979Y-132412895D01*
X163815979Y-132412895D02*
X163815979Y-132555752D01*
X163815979Y-132555752D02*
X163768360Y-132650990D01*
X163768360Y-132650990D02*
X163720741Y-132698609D01*
X163720741Y-132698609D02*
X163625503Y-132746228D01*
X163625503Y-132746228D02*
X163244551Y-132746228D01*
X164244551Y-132698609D02*
X164577884Y-132698609D01*
X164720741Y-133222419D02*
X164244551Y-133222419D01*
X164244551Y-133222419D02*
X164244551Y-132222419D01*
X164244551Y-132222419D02*
X164720741Y-132222419D01*
X165101694Y-133174800D02*
X165244551Y-133222419D01*
X165244551Y-133222419D02*
X165482646Y-133222419D01*
X165482646Y-133222419D02*
X165577884Y-133174800D01*
X165577884Y-133174800D02*
X165625503Y-133127180D01*
X165625503Y-133127180D02*
X165673122Y-133031942D01*
X165673122Y-133031942D02*
X165673122Y-132936704D01*
X165673122Y-132936704D02*
X165625503Y-132841466D01*
X165625503Y-132841466D02*
X165577884Y-132793847D01*
X165577884Y-132793847D02*
X165482646Y-132746228D01*
X165482646Y-132746228D02*
X165292170Y-132698609D01*
X165292170Y-132698609D02*
X165196932Y-132650990D01*
X165196932Y-132650990D02*
X165149313Y-132603371D01*
X165149313Y-132603371D02*
X165101694Y-132508133D01*
X165101694Y-132508133D02*
X165101694Y-132412895D01*
X165101694Y-132412895D02*
X165149313Y-132317657D01*
X165149313Y-132317657D02*
X165196932Y-132270038D01*
X165196932Y-132270038D02*
X165292170Y-132222419D01*
X165292170Y-132222419D02*
X165530265Y-132222419D01*
X165530265Y-132222419D02*
X165673122Y-132270038D01*
X166101694Y-132698609D02*
X166435027Y-132698609D01*
X166577884Y-133222419D02*
X166101694Y-133222419D01*
X166101694Y-133222419D02*
X166101694Y-132222419D01*
X166101694Y-132222419D02*
X166577884Y-132222419D01*
X166863599Y-132222419D02*
X167435027Y-132222419D01*
X167149313Y-133222419D02*
X167149313Y-132222419D01*
X166499217Y-93074609D02*
X166642074Y-93122228D01*
X166642074Y-93122228D02*
X166689693Y-93169847D01*
X166689693Y-93169847D02*
X166737312Y-93265085D01*
X166737312Y-93265085D02*
X166737312Y-93407942D01*
X166737312Y-93407942D02*
X166689693Y-93503180D01*
X166689693Y-93503180D02*
X166642074Y-93550800D01*
X166642074Y-93550800D02*
X166546836Y-93598419D01*
X166546836Y-93598419D02*
X166165884Y-93598419D01*
X166165884Y-93598419D02*
X166165884Y-92598419D01*
X166165884Y-92598419D02*
X166499217Y-92598419D01*
X166499217Y-92598419D02*
X166594455Y-92646038D01*
X166594455Y-92646038D02*
X166642074Y-92693657D01*
X166642074Y-92693657D02*
X166689693Y-92788895D01*
X166689693Y-92788895D02*
X166689693Y-92884133D01*
X166689693Y-92884133D02*
X166642074Y-92979371D01*
X166642074Y-92979371D02*
X166594455Y-93026990D01*
X166594455Y-93026990D02*
X166499217Y-93074609D01*
X166499217Y-93074609D02*
X166165884Y-93074609D01*
X167118265Y-93312704D02*
X167594455Y-93312704D01*
X167023027Y-93598419D02*
X167356360Y-92598419D01*
X167356360Y-92598419D02*
X167689693Y-93598419D01*
X167880170Y-92598419D02*
X168451598Y-92598419D01*
X168165884Y-93598419D02*
X168165884Y-92598419D01*
X168642075Y-92598419D02*
X169213503Y-92598419D01*
X168927789Y-93598419D02*
X168927789Y-92598419D01*
X169546837Y-93074609D02*
X169880170Y-93074609D01*
X170023027Y-93598419D02*
X169546837Y-93598419D01*
X169546837Y-93598419D02*
X169546837Y-92598419D01*
X169546837Y-92598419D02*
X170023027Y-92598419D01*
X171023027Y-93598419D02*
X170689694Y-93122228D01*
X170451599Y-93598419D02*
X170451599Y-92598419D01*
X170451599Y-92598419D02*
X170832551Y-92598419D01*
X170832551Y-92598419D02*
X170927789Y-92646038D01*
X170927789Y-92646038D02*
X170975408Y-92693657D01*
X170975408Y-92693657D02*
X171023027Y-92788895D01*
X171023027Y-92788895D02*
X171023027Y-92931752D01*
X171023027Y-92931752D02*
X170975408Y-93026990D01*
X170975408Y-93026990D02*
X170927789Y-93074609D01*
X170927789Y-93074609D02*
X170832551Y-93122228D01*
X170832551Y-93122228D02*
X170451599Y-93122228D01*
X171642075Y-93122228D02*
X171642075Y-93598419D01*
X171308742Y-92598419D02*
X171642075Y-93122228D01*
X171642075Y-93122228D02*
X171975408Y-92598419D01*
X167499312Y-103164475D02*
X167165979Y-102688284D01*
X166927884Y-103164475D02*
X166927884Y-102164475D01*
X166927884Y-102164475D02*
X167308836Y-102164475D01*
X167308836Y-102164475D02*
X167404074Y-102212094D01*
X167404074Y-102212094D02*
X167451693Y-102259713D01*
X167451693Y-102259713D02*
X167499312Y-102354951D01*
X167499312Y-102354951D02*
X167499312Y-102497808D01*
X167499312Y-102497808D02*
X167451693Y-102593046D01*
X167451693Y-102593046D02*
X167404074Y-102640665D01*
X167404074Y-102640665D02*
X167308836Y-102688284D01*
X167308836Y-102688284D02*
X166927884Y-102688284D01*
X167927884Y-102640665D02*
X168261217Y-102640665D01*
X168404074Y-103164475D02*
X167927884Y-103164475D01*
X167927884Y-103164475D02*
X167927884Y-102164475D01*
X167927884Y-102164475D02*
X168404074Y-102164475D01*
X169356455Y-102212094D02*
X169261217Y-102164475D01*
X169261217Y-102164475D02*
X169118360Y-102164475D01*
X169118360Y-102164475D02*
X168975503Y-102212094D01*
X168975503Y-102212094D02*
X168880265Y-102307332D01*
X168880265Y-102307332D02*
X168832646Y-102402570D01*
X168832646Y-102402570D02*
X168785027Y-102593046D01*
X168785027Y-102593046D02*
X168785027Y-102735903D01*
X168785027Y-102735903D02*
X168832646Y-102926379D01*
X168832646Y-102926379D02*
X168880265Y-103021617D01*
X168880265Y-103021617D02*
X168975503Y-103116856D01*
X168975503Y-103116856D02*
X169118360Y-103164475D01*
X169118360Y-103164475D02*
X169213598Y-103164475D01*
X169213598Y-103164475D02*
X169356455Y-103116856D01*
X169356455Y-103116856D02*
X169404074Y-103069236D01*
X169404074Y-103069236D02*
X169404074Y-102735903D01*
X169404074Y-102735903D02*
X169213598Y-102735903D01*
X169832646Y-102164475D02*
X169832646Y-102973998D01*
X169832646Y-102973998D02*
X169880265Y-103069236D01*
X169880265Y-103069236D02*
X169927884Y-103116856D01*
X169927884Y-103116856D02*
X170023122Y-103164475D01*
X170023122Y-103164475D02*
X170213598Y-103164475D01*
X170213598Y-103164475D02*
X170308836Y-103116856D01*
X170308836Y-103116856D02*
X170356455Y-103069236D01*
X170356455Y-103069236D02*
X170404074Y-102973998D01*
X170404074Y-102973998D02*
X170404074Y-102164475D01*
X171356455Y-103164475D02*
X170880265Y-103164475D01*
X170880265Y-103164475D02*
X170880265Y-102164475D01*
X171642170Y-102878760D02*
X172118360Y-102878760D01*
X171546932Y-103164475D02*
X171880265Y-102164475D01*
X171880265Y-102164475D02*
X172213598Y-103164475D01*
X172404075Y-102164475D02*
X172975503Y-102164475D01*
X172689789Y-103164475D02*
X172689789Y-102164475D01*
X173499313Y-102164475D02*
X173689789Y-102164475D01*
X173689789Y-102164475D02*
X173785027Y-102212094D01*
X173785027Y-102212094D02*
X173880265Y-102307332D01*
X173880265Y-102307332D02*
X173927884Y-102497808D01*
X173927884Y-102497808D02*
X173927884Y-102831141D01*
X173927884Y-102831141D02*
X173880265Y-103021617D01*
X173880265Y-103021617D02*
X173785027Y-103116856D01*
X173785027Y-103116856D02*
X173689789Y-103164475D01*
X173689789Y-103164475D02*
X173499313Y-103164475D01*
X173499313Y-103164475D02*
X173404075Y-103116856D01*
X173404075Y-103116856D02*
X173308837Y-103021617D01*
X173308837Y-103021617D02*
X173261218Y-102831141D01*
X173261218Y-102831141D02*
X173261218Y-102497808D01*
X173261218Y-102497808D02*
X173308837Y-102307332D01*
X173308837Y-102307332D02*
X173404075Y-102212094D01*
X173404075Y-102212094D02*
X173499313Y-102164475D01*
X174927884Y-103164475D02*
X174594551Y-102688284D01*
X174356456Y-103164475D02*
X174356456Y-102164475D01*
X174356456Y-102164475D02*
X174737408Y-102164475D01*
X174737408Y-102164475D02*
X174832646Y-102212094D01*
X174832646Y-102212094D02*
X174880265Y-102259713D01*
X174880265Y-102259713D02*
X174927884Y-102354951D01*
X174927884Y-102354951D02*
X174927884Y-102497808D01*
X174927884Y-102497808D02*
X174880265Y-102593046D01*
X174880265Y-102593046D02*
X174832646Y-102640665D01*
X174832646Y-102640665D02*
X174737408Y-102688284D01*
X174737408Y-102688284D02*
X174356456Y-102688284D01*
X166880265Y-104726800D02*
X167023122Y-104774419D01*
X167023122Y-104774419D02*
X167261217Y-104774419D01*
X167261217Y-104774419D02*
X167356455Y-104726800D01*
X167356455Y-104726800D02*
X167404074Y-104679180D01*
X167404074Y-104679180D02*
X167451693Y-104583942D01*
X167451693Y-104583942D02*
X167451693Y-104488704D01*
X167451693Y-104488704D02*
X167404074Y-104393466D01*
X167404074Y-104393466D02*
X167356455Y-104345847D01*
X167356455Y-104345847D02*
X167261217Y-104298228D01*
X167261217Y-104298228D02*
X167070741Y-104250609D01*
X167070741Y-104250609D02*
X166975503Y-104202990D01*
X166975503Y-104202990D02*
X166927884Y-104155371D01*
X166927884Y-104155371D02*
X166880265Y-104060133D01*
X166880265Y-104060133D02*
X166880265Y-103964895D01*
X166880265Y-103964895D02*
X166927884Y-103869657D01*
X166927884Y-103869657D02*
X166975503Y-103822038D01*
X166975503Y-103822038D02*
X167070741Y-103774419D01*
X167070741Y-103774419D02*
X167308836Y-103774419D01*
X167308836Y-103774419D02*
X167451693Y-103822038D01*
X167785027Y-103774419D02*
X168023122Y-104774419D01*
X168023122Y-104774419D02*
X168213598Y-104060133D01*
X168213598Y-104060133D02*
X168404074Y-104774419D01*
X168404074Y-104774419D02*
X168642170Y-103774419D01*
X169023122Y-104774419D02*
X169023122Y-103774419D01*
X169356455Y-103774419D02*
X169927883Y-103774419D01*
X169642169Y-104774419D02*
X169642169Y-103774419D01*
X170832645Y-104679180D02*
X170785026Y-104726800D01*
X170785026Y-104726800D02*
X170642169Y-104774419D01*
X170642169Y-104774419D02*
X170546931Y-104774419D01*
X170546931Y-104774419D02*
X170404074Y-104726800D01*
X170404074Y-104726800D02*
X170308836Y-104631561D01*
X170308836Y-104631561D02*
X170261217Y-104536323D01*
X170261217Y-104536323D02*
X170213598Y-104345847D01*
X170213598Y-104345847D02*
X170213598Y-104202990D01*
X170213598Y-104202990D02*
X170261217Y-104012514D01*
X170261217Y-104012514D02*
X170308836Y-103917276D01*
X170308836Y-103917276D02*
X170404074Y-103822038D01*
X170404074Y-103822038D02*
X170546931Y-103774419D01*
X170546931Y-103774419D02*
X170642169Y-103774419D01*
X170642169Y-103774419D02*
X170785026Y-103822038D01*
X170785026Y-103822038D02*
X170832645Y-103869657D01*
X171261217Y-104774419D02*
X171261217Y-103774419D01*
X171261217Y-104250609D02*
X171832645Y-104250609D01*
X171832645Y-104774419D02*
X171832645Y-103774419D01*
X177087884Y-146176419D02*
X177087884Y-145176419D01*
X177087884Y-145176419D02*
X177421217Y-145890704D01*
X177421217Y-145890704D02*
X177754550Y-145176419D01*
X177754550Y-145176419D02*
X177754550Y-146176419D01*
X178421217Y-145176419D02*
X178611693Y-145176419D01*
X178611693Y-145176419D02*
X178706931Y-145224038D01*
X178706931Y-145224038D02*
X178802169Y-145319276D01*
X178802169Y-145319276D02*
X178849788Y-145509752D01*
X178849788Y-145509752D02*
X178849788Y-145843085D01*
X178849788Y-145843085D02*
X178802169Y-146033561D01*
X178802169Y-146033561D02*
X178706931Y-146128800D01*
X178706931Y-146128800D02*
X178611693Y-146176419D01*
X178611693Y-146176419D02*
X178421217Y-146176419D01*
X178421217Y-146176419D02*
X178325979Y-146128800D01*
X178325979Y-146128800D02*
X178230741Y-146033561D01*
X178230741Y-146033561D02*
X178183122Y-145843085D01*
X178183122Y-145843085D02*
X178183122Y-145509752D01*
X178183122Y-145509752D02*
X178230741Y-145319276D01*
X178230741Y-145319276D02*
X178325979Y-145224038D01*
X178325979Y-145224038D02*
X178421217Y-145176419D01*
X179135503Y-145176419D02*
X179706931Y-145176419D01*
X179421217Y-146176419D02*
X179421217Y-145176419D01*
X180230741Y-145176419D02*
X180421217Y-145176419D01*
X180421217Y-145176419D02*
X180516455Y-145224038D01*
X180516455Y-145224038D02*
X180611693Y-145319276D01*
X180611693Y-145319276D02*
X180659312Y-145509752D01*
X180659312Y-145509752D02*
X180659312Y-145843085D01*
X180659312Y-145843085D02*
X180611693Y-146033561D01*
X180611693Y-146033561D02*
X180516455Y-146128800D01*
X180516455Y-146128800D02*
X180421217Y-146176419D01*
X180421217Y-146176419D02*
X180230741Y-146176419D01*
X180230741Y-146176419D02*
X180135503Y-146128800D01*
X180135503Y-146128800D02*
X180040265Y-146033561D01*
X180040265Y-146033561D02*
X179992646Y-145843085D01*
X179992646Y-145843085D02*
X179992646Y-145509752D01*
X179992646Y-145509752D02*
X180040265Y-145319276D01*
X180040265Y-145319276D02*
X180135503Y-145224038D01*
X180135503Y-145224038D02*
X180230741Y-145176419D01*
X181659312Y-146176419D02*
X181325979Y-145700228D01*
X181087884Y-146176419D02*
X181087884Y-145176419D01*
X181087884Y-145176419D02*
X181468836Y-145176419D01*
X181468836Y-145176419D02*
X181564074Y-145224038D01*
X181564074Y-145224038D02*
X181611693Y-145271657D01*
X181611693Y-145271657D02*
X181659312Y-145366895D01*
X181659312Y-145366895D02*
X181659312Y-145509752D01*
X181659312Y-145509752D02*
X181611693Y-145604990D01*
X181611693Y-145604990D02*
X181564074Y-145652609D01*
X181564074Y-145652609D02*
X181468836Y-145700228D01*
X181468836Y-145700228D02*
X181087884Y-145700228D01*
X183373598Y-146176419D02*
X182802170Y-146176419D01*
X183087884Y-146176419D02*
X183087884Y-145176419D01*
X183087884Y-145176419D02*
X182992646Y-145319276D01*
X182992646Y-145319276D02*
X182897408Y-145414514D01*
X182897408Y-145414514D02*
X182802170Y-145462133D01*
X177849884Y-93598419D02*
X177849884Y-92598419D01*
X177849884Y-92598419D02*
X178183217Y-93312704D01*
X178183217Y-93312704D02*
X178516550Y-92598419D01*
X178516550Y-92598419D02*
X178516550Y-93598419D01*
X179183217Y-92598419D02*
X179373693Y-92598419D01*
X179373693Y-92598419D02*
X179468931Y-92646038D01*
X179468931Y-92646038D02*
X179564169Y-92741276D01*
X179564169Y-92741276D02*
X179611788Y-92931752D01*
X179611788Y-92931752D02*
X179611788Y-93265085D01*
X179611788Y-93265085D02*
X179564169Y-93455561D01*
X179564169Y-93455561D02*
X179468931Y-93550800D01*
X179468931Y-93550800D02*
X179373693Y-93598419D01*
X179373693Y-93598419D02*
X179183217Y-93598419D01*
X179183217Y-93598419D02*
X179087979Y-93550800D01*
X179087979Y-93550800D02*
X178992741Y-93455561D01*
X178992741Y-93455561D02*
X178945122Y-93265085D01*
X178945122Y-93265085D02*
X178945122Y-92931752D01*
X178945122Y-92931752D02*
X178992741Y-92741276D01*
X178992741Y-92741276D02*
X179087979Y-92646038D01*
X179087979Y-92646038D02*
X179183217Y-92598419D01*
X179897503Y-92598419D02*
X180468931Y-92598419D01*
X180183217Y-93598419D02*
X180183217Y-92598419D01*
X180992741Y-92598419D02*
X181183217Y-92598419D01*
X181183217Y-92598419D02*
X181278455Y-92646038D01*
X181278455Y-92646038D02*
X181373693Y-92741276D01*
X181373693Y-92741276D02*
X181421312Y-92931752D01*
X181421312Y-92931752D02*
X181421312Y-93265085D01*
X181421312Y-93265085D02*
X181373693Y-93455561D01*
X181373693Y-93455561D02*
X181278455Y-93550800D01*
X181278455Y-93550800D02*
X181183217Y-93598419D01*
X181183217Y-93598419D02*
X180992741Y-93598419D01*
X180992741Y-93598419D02*
X180897503Y-93550800D01*
X180897503Y-93550800D02*
X180802265Y-93455561D01*
X180802265Y-93455561D02*
X180754646Y-93265085D01*
X180754646Y-93265085D02*
X180754646Y-92931752D01*
X180754646Y-92931752D02*
X180802265Y-92741276D01*
X180802265Y-92741276D02*
X180897503Y-92646038D01*
X180897503Y-92646038D02*
X180992741Y-92598419D01*
X182421312Y-93598419D02*
X182087979Y-93122228D01*
X181849884Y-93598419D02*
X181849884Y-92598419D01*
X181849884Y-92598419D02*
X182230836Y-92598419D01*
X182230836Y-92598419D02*
X182326074Y-92646038D01*
X182326074Y-92646038D02*
X182373693Y-92693657D01*
X182373693Y-92693657D02*
X182421312Y-92788895D01*
X182421312Y-92788895D02*
X182421312Y-92931752D01*
X182421312Y-92931752D02*
X182373693Y-93026990D01*
X182373693Y-93026990D02*
X182326074Y-93074609D01*
X182326074Y-93074609D02*
X182230836Y-93122228D01*
X182230836Y-93122228D02*
X181849884Y-93122228D01*
X183564170Y-92693657D02*
X183611789Y-92646038D01*
X183611789Y-92646038D02*
X183707027Y-92598419D01*
X183707027Y-92598419D02*
X183945122Y-92598419D01*
X183945122Y-92598419D02*
X184040360Y-92646038D01*
X184040360Y-92646038D02*
X184087979Y-92693657D01*
X184087979Y-92693657D02*
X184135598Y-92788895D01*
X184135598Y-92788895D02*
X184135598Y-92884133D01*
X184135598Y-92884133D02*
X184087979Y-93026990D01*
X184087979Y-93026990D02*
X183516551Y-93598419D01*
X183516551Y-93598419D02*
X184135598Y-93598419D01*
X178357884Y-113578475D02*
X178357884Y-112578475D01*
X178357884Y-112578475D02*
X178691217Y-113292760D01*
X178691217Y-113292760D02*
X179024550Y-112578475D01*
X179024550Y-112578475D02*
X179024550Y-113578475D01*
X179691217Y-112578475D02*
X179881693Y-112578475D01*
X179881693Y-112578475D02*
X179976931Y-112626094D01*
X179976931Y-112626094D02*
X180072169Y-112721332D01*
X180072169Y-112721332D02*
X180119788Y-112911808D01*
X180119788Y-112911808D02*
X180119788Y-113245141D01*
X180119788Y-113245141D02*
X180072169Y-113435617D01*
X180072169Y-113435617D02*
X179976931Y-113530856D01*
X179976931Y-113530856D02*
X179881693Y-113578475D01*
X179881693Y-113578475D02*
X179691217Y-113578475D01*
X179691217Y-113578475D02*
X179595979Y-113530856D01*
X179595979Y-113530856D02*
X179500741Y-113435617D01*
X179500741Y-113435617D02*
X179453122Y-113245141D01*
X179453122Y-113245141D02*
X179453122Y-112911808D01*
X179453122Y-112911808D02*
X179500741Y-112721332D01*
X179500741Y-112721332D02*
X179595979Y-112626094D01*
X179595979Y-112626094D02*
X179691217Y-112578475D01*
X180405503Y-112578475D02*
X180976931Y-112578475D01*
X180691217Y-113578475D02*
X180691217Y-112578475D01*
X181500741Y-112578475D02*
X181691217Y-112578475D01*
X181691217Y-112578475D02*
X181786455Y-112626094D01*
X181786455Y-112626094D02*
X181881693Y-112721332D01*
X181881693Y-112721332D02*
X181929312Y-112911808D01*
X181929312Y-112911808D02*
X181929312Y-113245141D01*
X181929312Y-113245141D02*
X181881693Y-113435617D01*
X181881693Y-113435617D02*
X181786455Y-113530856D01*
X181786455Y-113530856D02*
X181691217Y-113578475D01*
X181691217Y-113578475D02*
X181500741Y-113578475D01*
X181500741Y-113578475D02*
X181405503Y-113530856D01*
X181405503Y-113530856D02*
X181310265Y-113435617D01*
X181310265Y-113435617D02*
X181262646Y-113245141D01*
X181262646Y-113245141D02*
X181262646Y-112911808D01*
X181262646Y-112911808D02*
X181310265Y-112721332D01*
X181310265Y-112721332D02*
X181405503Y-112626094D01*
X181405503Y-112626094D02*
X181500741Y-112578475D01*
X182929312Y-113578475D02*
X182595979Y-113102284D01*
X182357884Y-113578475D02*
X182357884Y-112578475D01*
X182357884Y-112578475D02*
X182738836Y-112578475D01*
X182738836Y-112578475D02*
X182834074Y-112626094D01*
X182834074Y-112626094D02*
X182881693Y-112673713D01*
X182881693Y-112673713D02*
X182929312Y-112768951D01*
X182929312Y-112768951D02*
X182929312Y-112911808D01*
X182929312Y-112911808D02*
X182881693Y-113007046D01*
X182881693Y-113007046D02*
X182834074Y-113054665D01*
X182834074Y-113054665D02*
X182738836Y-113102284D01*
X182738836Y-113102284D02*
X182357884Y-113102284D01*
X178357884Y-115188419D02*
X178357884Y-114188419D01*
X178357884Y-114188419D02*
X178595979Y-114188419D01*
X178595979Y-114188419D02*
X178738836Y-114236038D01*
X178738836Y-114236038D02*
X178834074Y-114331276D01*
X178834074Y-114331276D02*
X178881693Y-114426514D01*
X178881693Y-114426514D02*
X178929312Y-114616990D01*
X178929312Y-114616990D02*
X178929312Y-114759847D01*
X178929312Y-114759847D02*
X178881693Y-114950323D01*
X178881693Y-114950323D02*
X178834074Y-115045561D01*
X178834074Y-115045561D02*
X178738836Y-115140800D01*
X178738836Y-115140800D02*
X178595979Y-115188419D01*
X178595979Y-115188419D02*
X178357884Y-115188419D01*
X179929312Y-115188419D02*
X179595979Y-114712228D01*
X179357884Y-115188419D02*
X179357884Y-114188419D01*
X179357884Y-114188419D02*
X179738836Y-114188419D01*
X179738836Y-114188419D02*
X179834074Y-114236038D01*
X179834074Y-114236038D02*
X179881693Y-114283657D01*
X179881693Y-114283657D02*
X179929312Y-114378895D01*
X179929312Y-114378895D02*
X179929312Y-114521752D01*
X179929312Y-114521752D02*
X179881693Y-114616990D01*
X179881693Y-114616990D02*
X179834074Y-114664609D01*
X179834074Y-114664609D02*
X179738836Y-114712228D01*
X179738836Y-114712228D02*
X179357884Y-114712228D01*
X180357884Y-115188419D02*
X180357884Y-114188419D01*
X180691217Y-114188419D02*
X181024550Y-115188419D01*
X181024550Y-115188419D02*
X181357883Y-114188419D01*
X181691217Y-114664609D02*
X182024550Y-114664609D01*
X182167407Y-115188419D02*
X181691217Y-115188419D01*
X181691217Y-115188419D02*
X181691217Y-114188419D01*
X181691217Y-114188419D02*
X182167407Y-114188419D01*
X183167407Y-115188419D02*
X182834074Y-114712228D01*
X182595979Y-115188419D02*
X182595979Y-114188419D01*
X182595979Y-114188419D02*
X182976931Y-114188419D01*
X182976931Y-114188419D02*
X183072169Y-114236038D01*
X183072169Y-114236038D02*
X183119788Y-114283657D01*
X183119788Y-114283657D02*
X183167407Y-114378895D01*
X183167407Y-114378895D02*
X183167407Y-114521752D01*
X183167407Y-114521752D02*
X183119788Y-114616990D01*
X183119788Y-114616990D02*
X183072169Y-114664609D01*
X183072169Y-114664609D02*
X182976931Y-114712228D01*
X182976931Y-114712228D02*
X182595979Y-114712228D01*
X110378419Y-113583353D02*
X111378419Y-113345258D01*
X111378419Y-113345258D02*
X110664133Y-113154782D01*
X110664133Y-113154782D02*
X111378419Y-112964306D01*
X111378419Y-112964306D02*
X110378419Y-112726211D01*
X111378419Y-112345258D02*
X110711752Y-112345258D01*
X110378419Y-112345258D02*
X110426038Y-112392877D01*
X110426038Y-112392877D02*
X110473657Y-112345258D01*
X110473657Y-112345258D02*
X110426038Y-112297639D01*
X110426038Y-112297639D02*
X110378419Y-112345258D01*
X110378419Y-112345258D02*
X110473657Y-112345258D01*
X110854609Y-111535735D02*
X110854609Y-111869068D01*
X111378419Y-111869068D02*
X110378419Y-111869068D01*
X110378419Y-111869068D02*
X110378419Y-111392878D01*
X111378419Y-111011925D02*
X110711752Y-111011925D01*
X110378419Y-111011925D02*
X110426038Y-111059544D01*
X110426038Y-111059544D02*
X110473657Y-111011925D01*
X110473657Y-111011925D02*
X110426038Y-110964306D01*
X110426038Y-110964306D02*
X110378419Y-111011925D01*
X110378419Y-111011925D02*
X110473657Y-111011925D01*
X111092704Y-109821449D02*
X111092704Y-109345259D01*
X111378419Y-109916687D02*
X110378419Y-109583354D01*
X110378419Y-109583354D02*
X111378419Y-109250021D01*
X110711752Y-108916687D02*
X111378419Y-108916687D01*
X110806990Y-108916687D02*
X110759371Y-108869068D01*
X110759371Y-108869068D02*
X110711752Y-108773830D01*
X110711752Y-108773830D02*
X110711752Y-108630973D01*
X110711752Y-108630973D02*
X110759371Y-108535735D01*
X110759371Y-108535735D02*
X110854609Y-108488116D01*
X110854609Y-108488116D02*
X111378419Y-108488116D01*
X110711752Y-108154782D02*
X110711752Y-107773830D01*
X110378419Y-108011925D02*
X111235561Y-108011925D01*
X111235561Y-108011925D02*
X111330800Y-107964306D01*
X111330800Y-107964306D02*
X111378419Y-107869068D01*
X111378419Y-107869068D02*
X111378419Y-107773830D01*
X111330800Y-107059544D02*
X111378419Y-107154782D01*
X111378419Y-107154782D02*
X111378419Y-107345258D01*
X111378419Y-107345258D02*
X111330800Y-107440496D01*
X111330800Y-107440496D02*
X111235561Y-107488115D01*
X111235561Y-107488115D02*
X110854609Y-107488115D01*
X110854609Y-107488115D02*
X110759371Y-107440496D01*
X110759371Y-107440496D02*
X110711752Y-107345258D01*
X110711752Y-107345258D02*
X110711752Y-107154782D01*
X110711752Y-107154782D02*
X110759371Y-107059544D01*
X110759371Y-107059544D02*
X110854609Y-107011925D01*
X110854609Y-107011925D02*
X110949847Y-107011925D01*
X110949847Y-107011925D02*
X111045085Y-107488115D01*
X110711752Y-106583353D02*
X111378419Y-106583353D01*
X110806990Y-106583353D02*
X110759371Y-106535734D01*
X110759371Y-106535734D02*
X110711752Y-106440496D01*
X110711752Y-106440496D02*
X110711752Y-106297639D01*
X110711752Y-106297639D02*
X110759371Y-106202401D01*
X110759371Y-106202401D02*
X110854609Y-106154782D01*
X110854609Y-106154782D02*
X111378419Y-106154782D01*
X110711752Y-105678591D02*
X111378419Y-105678591D01*
X110806990Y-105678591D02*
X110759371Y-105630972D01*
X110759371Y-105630972D02*
X110711752Y-105535734D01*
X110711752Y-105535734D02*
X110711752Y-105392877D01*
X110711752Y-105392877D02*
X110759371Y-105297639D01*
X110759371Y-105297639D02*
X110854609Y-105250020D01*
X110854609Y-105250020D02*
X111378419Y-105250020D01*
X111378419Y-104345258D02*
X110854609Y-104345258D01*
X110854609Y-104345258D02*
X110759371Y-104392877D01*
X110759371Y-104392877D02*
X110711752Y-104488115D01*
X110711752Y-104488115D02*
X110711752Y-104678591D01*
X110711752Y-104678591D02*
X110759371Y-104773829D01*
X111330800Y-104345258D02*
X111378419Y-104440496D01*
X111378419Y-104440496D02*
X111378419Y-104678591D01*
X111378419Y-104678591D02*
X111330800Y-104773829D01*
X111330800Y-104773829D02*
X111235561Y-104821448D01*
X111235561Y-104821448D02*
X111140323Y-104821448D01*
X111140323Y-104821448D02*
X111045085Y-104773829D01*
X111045085Y-104773829D02*
X110997466Y-104678591D01*
X110997466Y-104678591D02*
X110997466Y-104440496D01*
X110997466Y-104440496D02*
X110949847Y-104345258D01*
D11*
X164203142Y-130153580D02*
X164155523Y-130201200D01*
X164155523Y-130201200D02*
X164012666Y-130248819D01*
X164012666Y-130248819D02*
X163917428Y-130248819D01*
X163917428Y-130248819D02*
X163774571Y-130201200D01*
X163774571Y-130201200D02*
X163679333Y-130105961D01*
X163679333Y-130105961D02*
X163631714Y-130010723D01*
X163631714Y-130010723D02*
X163584095Y-129820247D01*
X163584095Y-129820247D02*
X163584095Y-129677390D01*
X163584095Y-129677390D02*
X163631714Y-129486914D01*
X163631714Y-129486914D02*
X163679333Y-129391676D01*
X163679333Y-129391676D02*
X163774571Y-129296438D01*
X163774571Y-129296438D02*
X163917428Y-129248819D01*
X163917428Y-129248819D02*
X164012666Y-129248819D01*
X164012666Y-129248819D02*
X164155523Y-129296438D01*
X164155523Y-129296438D02*
X164203142Y-129344057D01*
X164584095Y-129344057D02*
X164631714Y-129296438D01*
X164631714Y-129296438D02*
X164726952Y-129248819D01*
X164726952Y-129248819D02*
X164965047Y-129248819D01*
X164965047Y-129248819D02*
X165060285Y-129296438D01*
X165060285Y-129296438D02*
X165107904Y-129344057D01*
X165107904Y-129344057D02*
X165155523Y-129439295D01*
X165155523Y-129439295D02*
X165155523Y-129534533D01*
X165155523Y-129534533D02*
X165107904Y-129677390D01*
X165107904Y-129677390D02*
X164536476Y-130248819D01*
X164536476Y-130248819D02*
X165155523Y-130248819D01*
X166012666Y-129248819D02*
X165822190Y-129248819D01*
X165822190Y-129248819D02*
X165726952Y-129296438D01*
X165726952Y-129296438D02*
X165679333Y-129344057D01*
X165679333Y-129344057D02*
X165584095Y-129486914D01*
X165584095Y-129486914D02*
X165536476Y-129677390D01*
X165536476Y-129677390D02*
X165536476Y-130058342D01*
X165536476Y-130058342D02*
X165584095Y-130153580D01*
X165584095Y-130153580D02*
X165631714Y-130201200D01*
X165631714Y-130201200D02*
X165726952Y-130248819D01*
X165726952Y-130248819D02*
X165917428Y-130248819D01*
X165917428Y-130248819D02*
X166012666Y-130201200D01*
X166012666Y-130201200D02*
X166060285Y-130153580D01*
X166060285Y-130153580D02*
X166107904Y-130058342D01*
X166107904Y-130058342D02*
X166107904Y-129820247D01*
X166107904Y-129820247D02*
X166060285Y-129725009D01*
X166060285Y-129725009D02*
X166012666Y-129677390D01*
X166012666Y-129677390D02*
X165917428Y-129629771D01*
X165917428Y-129629771D02*
X165726952Y-129629771D01*
X165726952Y-129629771D02*
X165631714Y-129677390D01*
X165631714Y-129677390D02*
X165584095Y-129725009D01*
X165584095Y-129725009D02*
X165536476Y-129820247D01*
X179324095Y-119850819D02*
X179324095Y-120660342D01*
X179324095Y-120660342D02*
X179371714Y-120755580D01*
X179371714Y-120755580D02*
X179419333Y-120803200D01*
X179419333Y-120803200D02*
X179514571Y-120850819D01*
X179514571Y-120850819D02*
X179705047Y-120850819D01*
X179705047Y-120850819D02*
X179800285Y-120803200D01*
X179800285Y-120803200D02*
X179847904Y-120755580D01*
X179847904Y-120755580D02*
X179895523Y-120660342D01*
X179895523Y-120660342D02*
X179895523Y-119850819D01*
X180324095Y-119946057D02*
X180371714Y-119898438D01*
X180371714Y-119898438D02*
X180466952Y-119850819D01*
X180466952Y-119850819D02*
X180705047Y-119850819D01*
X180705047Y-119850819D02*
X180800285Y-119898438D01*
X180800285Y-119898438D02*
X180847904Y-119946057D01*
X180847904Y-119946057D02*
X180895523Y-120041295D01*
X180895523Y-120041295D02*
X180895523Y-120136533D01*
X180895523Y-120136533D02*
X180847904Y-120279390D01*
X180847904Y-120279390D02*
X180276476Y-120850819D01*
X180276476Y-120850819D02*
X180895523Y-120850819D01*
X143839833Y-114450580D02*
X143792214Y-114498200D01*
X143792214Y-114498200D02*
X143649357Y-114545819D01*
X143649357Y-114545819D02*
X143554119Y-114545819D01*
X143554119Y-114545819D02*
X143411262Y-114498200D01*
X143411262Y-114498200D02*
X143316024Y-114402961D01*
X143316024Y-114402961D02*
X143268405Y-114307723D01*
X143268405Y-114307723D02*
X143220786Y-114117247D01*
X143220786Y-114117247D02*
X143220786Y-113974390D01*
X143220786Y-113974390D02*
X143268405Y-113783914D01*
X143268405Y-113783914D02*
X143316024Y-113688676D01*
X143316024Y-113688676D02*
X143411262Y-113593438D01*
X143411262Y-113593438D02*
X143554119Y-113545819D01*
X143554119Y-113545819D02*
X143649357Y-113545819D01*
X143649357Y-113545819D02*
X143792214Y-113593438D01*
X143792214Y-113593438D02*
X143839833Y-113641057D01*
X144792214Y-114545819D02*
X144220786Y-114545819D01*
X144506500Y-114545819D02*
X144506500Y-113545819D01*
X144506500Y-113545819D02*
X144411262Y-113688676D01*
X144411262Y-113688676D02*
X144316024Y-113783914D01*
X144316024Y-113783914D02*
X144220786Y-113831533D01*
X156995905Y-116532819D02*
X156995905Y-115532819D01*
X156995905Y-115532819D02*
X157234000Y-115532819D01*
X157234000Y-115532819D02*
X157376857Y-115580438D01*
X157376857Y-115580438D02*
X157472095Y-115675676D01*
X157472095Y-115675676D02*
X157519714Y-115770914D01*
X157519714Y-115770914D02*
X157567333Y-115961390D01*
X157567333Y-115961390D02*
X157567333Y-116104247D01*
X157567333Y-116104247D02*
X157519714Y-116294723D01*
X157519714Y-116294723D02*
X157472095Y-116389961D01*
X157472095Y-116389961D02*
X157376857Y-116485200D01*
X157376857Y-116485200D02*
X157234000Y-116532819D01*
X157234000Y-116532819D02*
X156995905Y-116532819D01*
X157900667Y-115532819D02*
X158519714Y-115532819D01*
X158519714Y-115532819D02*
X158186381Y-115913771D01*
X158186381Y-115913771D02*
X158329238Y-115913771D01*
X158329238Y-115913771D02*
X158424476Y-115961390D01*
X158424476Y-115961390D02*
X158472095Y-116009009D01*
X158472095Y-116009009D02*
X158519714Y-116104247D01*
X158519714Y-116104247D02*
X158519714Y-116342342D01*
X158519714Y-116342342D02*
X158472095Y-116437580D01*
X158472095Y-116437580D02*
X158424476Y-116485200D01*
X158424476Y-116485200D02*
X158329238Y-116532819D01*
X158329238Y-116532819D02*
X158043524Y-116532819D01*
X158043524Y-116532819D02*
X157948286Y-116485200D01*
X157948286Y-116485200D02*
X157900667Y-116437580D01*
X127833333Y-129708819D02*
X127500000Y-129232628D01*
X127261905Y-129708819D02*
X127261905Y-128708819D01*
X127261905Y-128708819D02*
X127642857Y-128708819D01*
X127642857Y-128708819D02*
X127738095Y-128756438D01*
X127738095Y-128756438D02*
X127785714Y-128804057D01*
X127785714Y-128804057D02*
X127833333Y-128899295D01*
X127833333Y-128899295D02*
X127833333Y-129042152D01*
X127833333Y-129042152D02*
X127785714Y-129137390D01*
X127785714Y-129137390D02*
X127738095Y-129185009D01*
X127738095Y-129185009D02*
X127642857Y-129232628D01*
X127642857Y-129232628D02*
X127261905Y-129232628D01*
X128690476Y-129042152D02*
X128690476Y-129708819D01*
X128452381Y-128661200D02*
X128214286Y-129375485D01*
X128214286Y-129375485D02*
X128833333Y-129375485D01*
D12*
X166121842Y-140885333D02*
X166182318Y-140703904D01*
X166182318Y-140703904D02*
X166182318Y-140401523D01*
X166182318Y-140401523D02*
X166121842Y-140280571D01*
X166121842Y-140280571D02*
X166061365Y-140220095D01*
X166061365Y-140220095D02*
X165940413Y-140159618D01*
X165940413Y-140159618D02*
X165819461Y-140159618D01*
X165819461Y-140159618D02*
X165698508Y-140220095D01*
X165698508Y-140220095D02*
X165638032Y-140280571D01*
X165638032Y-140280571D02*
X165577556Y-140401523D01*
X165577556Y-140401523D02*
X165517080Y-140643428D01*
X165517080Y-140643428D02*
X165456603Y-140764380D01*
X165456603Y-140764380D02*
X165396127Y-140824857D01*
X165396127Y-140824857D02*
X165275175Y-140885333D01*
X165275175Y-140885333D02*
X165154222Y-140885333D01*
X165154222Y-140885333D02*
X165033270Y-140824857D01*
X165033270Y-140824857D02*
X164972794Y-140764380D01*
X164972794Y-140764380D02*
X164912318Y-140643428D01*
X164912318Y-140643428D02*
X164912318Y-140341047D01*
X164912318Y-140341047D02*
X164972794Y-140159618D01*
X164912318Y-139736285D02*
X166182318Y-139433904D01*
X166182318Y-139433904D02*
X165275175Y-139191999D01*
X165275175Y-139191999D02*
X166182318Y-138950094D01*
X166182318Y-138950094D02*
X164912318Y-138647714D01*
X165033270Y-138224380D02*
X164972794Y-138163904D01*
X164972794Y-138163904D02*
X164912318Y-138042951D01*
X164912318Y-138042951D02*
X164912318Y-137740570D01*
X164912318Y-137740570D02*
X164972794Y-137619618D01*
X164972794Y-137619618D02*
X165033270Y-137559142D01*
X165033270Y-137559142D02*
X165154222Y-137498665D01*
X165154222Y-137498665D02*
X165275175Y-137498665D01*
X165275175Y-137498665D02*
X165456603Y-137559142D01*
X165456603Y-137559142D02*
X166182318Y-138284856D01*
X166182318Y-138284856D02*
X166182318Y-137498665D01*
D11*
X114673142Y-100530819D02*
X114339809Y-100054628D01*
X114101714Y-100530819D02*
X114101714Y-99530819D01*
X114101714Y-99530819D02*
X114482666Y-99530819D01*
X114482666Y-99530819D02*
X114577904Y-99578438D01*
X114577904Y-99578438D02*
X114625523Y-99626057D01*
X114625523Y-99626057D02*
X114673142Y-99721295D01*
X114673142Y-99721295D02*
X114673142Y-99864152D01*
X114673142Y-99864152D02*
X114625523Y-99959390D01*
X114625523Y-99959390D02*
X114577904Y-100007009D01*
X114577904Y-100007009D02*
X114482666Y-100054628D01*
X114482666Y-100054628D02*
X114101714Y-100054628D01*
X115625523Y-100530819D02*
X115054095Y-100530819D01*
X115339809Y-100530819D02*
X115339809Y-99530819D01*
X115339809Y-99530819D02*
X115244571Y-99673676D01*
X115244571Y-99673676D02*
X115149333Y-99768914D01*
X115149333Y-99768914D02*
X115054095Y-99816533D01*
X115958857Y-99530819D02*
X116625523Y-99530819D01*
X116625523Y-99530819D02*
X116196952Y-100530819D01*
X146423142Y-107315080D02*
X146375523Y-107362700D01*
X146375523Y-107362700D02*
X146232666Y-107410319D01*
X146232666Y-107410319D02*
X146137428Y-107410319D01*
X146137428Y-107410319D02*
X145994571Y-107362700D01*
X145994571Y-107362700D02*
X145899333Y-107267461D01*
X145899333Y-107267461D02*
X145851714Y-107172223D01*
X145851714Y-107172223D02*
X145804095Y-106981747D01*
X145804095Y-106981747D02*
X145804095Y-106838890D01*
X145804095Y-106838890D02*
X145851714Y-106648414D01*
X145851714Y-106648414D02*
X145899333Y-106553176D01*
X145899333Y-106553176D02*
X145994571Y-106457938D01*
X145994571Y-106457938D02*
X146137428Y-106410319D01*
X146137428Y-106410319D02*
X146232666Y-106410319D01*
X146232666Y-106410319D02*
X146375523Y-106457938D01*
X146375523Y-106457938D02*
X146423142Y-106505557D01*
X147375523Y-107410319D02*
X146804095Y-107410319D01*
X147089809Y-107410319D02*
X147089809Y-106410319D01*
X147089809Y-106410319D02*
X146994571Y-106553176D01*
X146994571Y-106553176D02*
X146899333Y-106648414D01*
X146899333Y-106648414D02*
X146804095Y-106696033D01*
X148232666Y-106743652D02*
X148232666Y-107410319D01*
X147994571Y-106362700D02*
X147756476Y-107076985D01*
X147756476Y-107076985D02*
X148375523Y-107076985D01*
X152773142Y-93164819D02*
X152439809Y-92688628D01*
X152201714Y-93164819D02*
X152201714Y-92164819D01*
X152201714Y-92164819D02*
X152582666Y-92164819D01*
X152582666Y-92164819D02*
X152677904Y-92212438D01*
X152677904Y-92212438D02*
X152725523Y-92260057D01*
X152725523Y-92260057D02*
X152773142Y-92355295D01*
X152773142Y-92355295D02*
X152773142Y-92498152D01*
X152773142Y-92498152D02*
X152725523Y-92593390D01*
X152725523Y-92593390D02*
X152677904Y-92641009D01*
X152677904Y-92641009D02*
X152582666Y-92688628D01*
X152582666Y-92688628D02*
X152201714Y-92688628D01*
X153725523Y-93164819D02*
X153154095Y-93164819D01*
X153439809Y-93164819D02*
X153439809Y-92164819D01*
X153439809Y-92164819D02*
X153344571Y-92307676D01*
X153344571Y-92307676D02*
X153249333Y-92402914D01*
X153249333Y-92402914D02*
X153154095Y-92450533D01*
X154344571Y-92164819D02*
X154439809Y-92164819D01*
X154439809Y-92164819D02*
X154535047Y-92212438D01*
X154535047Y-92212438D02*
X154582666Y-92260057D01*
X154582666Y-92260057D02*
X154630285Y-92355295D01*
X154630285Y-92355295D02*
X154677904Y-92545771D01*
X154677904Y-92545771D02*
X154677904Y-92783866D01*
X154677904Y-92783866D02*
X154630285Y-92974342D01*
X154630285Y-92974342D02*
X154582666Y-93069580D01*
X154582666Y-93069580D02*
X154535047Y-93117200D01*
X154535047Y-93117200D02*
X154439809Y-93164819D01*
X154439809Y-93164819D02*
X154344571Y-93164819D01*
X154344571Y-93164819D02*
X154249333Y-93117200D01*
X154249333Y-93117200D02*
X154201714Y-93069580D01*
X154201714Y-93069580D02*
X154154095Y-92974342D01*
X154154095Y-92974342D02*
X154106476Y-92783866D01*
X154106476Y-92783866D02*
X154106476Y-92545771D01*
X154106476Y-92545771D02*
X154154095Y-92355295D01*
X154154095Y-92355295D02*
X154201714Y-92260057D01*
X154201714Y-92260057D02*
X154249333Y-92212438D01*
X154249333Y-92212438D02*
X154344571Y-92164819D01*
X147947142Y-120501580D02*
X147899523Y-120549200D01*
X147899523Y-120549200D02*
X147756666Y-120596819D01*
X147756666Y-120596819D02*
X147661428Y-120596819D01*
X147661428Y-120596819D02*
X147518571Y-120549200D01*
X147518571Y-120549200D02*
X147423333Y-120453961D01*
X147423333Y-120453961D02*
X147375714Y-120358723D01*
X147375714Y-120358723D02*
X147328095Y-120168247D01*
X147328095Y-120168247D02*
X147328095Y-120025390D01*
X147328095Y-120025390D02*
X147375714Y-119834914D01*
X147375714Y-119834914D02*
X147423333Y-119739676D01*
X147423333Y-119739676D02*
X147518571Y-119644438D01*
X147518571Y-119644438D02*
X147661428Y-119596819D01*
X147661428Y-119596819D02*
X147756666Y-119596819D01*
X147756666Y-119596819D02*
X147899523Y-119644438D01*
X147899523Y-119644438D02*
X147947142Y-119692057D01*
X148328095Y-119692057D02*
X148375714Y-119644438D01*
X148375714Y-119644438D02*
X148470952Y-119596819D01*
X148470952Y-119596819D02*
X148709047Y-119596819D01*
X148709047Y-119596819D02*
X148804285Y-119644438D01*
X148804285Y-119644438D02*
X148851904Y-119692057D01*
X148851904Y-119692057D02*
X148899523Y-119787295D01*
X148899523Y-119787295D02*
X148899523Y-119882533D01*
X148899523Y-119882533D02*
X148851904Y-120025390D01*
X148851904Y-120025390D02*
X148280476Y-120596819D01*
X148280476Y-120596819D02*
X148899523Y-120596819D01*
X149756666Y-119930152D02*
X149756666Y-120596819D01*
X149518571Y-119549200D02*
X149280476Y-120263485D01*
X149280476Y-120263485D02*
X149899523Y-120263485D01*
X157249905Y-93164819D02*
X157249905Y-92164819D01*
X157249905Y-92164819D02*
X157488000Y-92164819D01*
X157488000Y-92164819D02*
X157630857Y-92212438D01*
X157630857Y-92212438D02*
X157726095Y-92307676D01*
X157726095Y-92307676D02*
X157773714Y-92402914D01*
X157773714Y-92402914D02*
X157821333Y-92593390D01*
X157821333Y-92593390D02*
X157821333Y-92736247D01*
X157821333Y-92736247D02*
X157773714Y-92926723D01*
X157773714Y-92926723D02*
X157726095Y-93021961D01*
X157726095Y-93021961D02*
X157630857Y-93117200D01*
X157630857Y-93117200D02*
X157488000Y-93164819D01*
X157488000Y-93164819D02*
X157249905Y-93164819D01*
X158726095Y-92164819D02*
X158249905Y-92164819D01*
X158249905Y-92164819D02*
X158202286Y-92641009D01*
X158202286Y-92641009D02*
X158249905Y-92593390D01*
X158249905Y-92593390D02*
X158345143Y-92545771D01*
X158345143Y-92545771D02*
X158583238Y-92545771D01*
X158583238Y-92545771D02*
X158678476Y-92593390D01*
X158678476Y-92593390D02*
X158726095Y-92641009D01*
X158726095Y-92641009D02*
X158773714Y-92736247D01*
X158773714Y-92736247D02*
X158773714Y-92974342D01*
X158773714Y-92974342D02*
X158726095Y-93069580D01*
X158726095Y-93069580D02*
X158678476Y-93117200D01*
X158678476Y-93117200D02*
X158583238Y-93164819D01*
X158583238Y-93164819D02*
X158345143Y-93164819D01*
X158345143Y-93164819D02*
X158249905Y-93117200D01*
X158249905Y-93117200D02*
X158202286Y-93069580D01*
X161059905Y-125168819D02*
X161059905Y-124168819D01*
X161059905Y-124168819D02*
X161298000Y-124168819D01*
X161298000Y-124168819D02*
X161440857Y-124216438D01*
X161440857Y-124216438D02*
X161536095Y-124311676D01*
X161536095Y-124311676D02*
X161583714Y-124406914D01*
X161583714Y-124406914D02*
X161631333Y-124597390D01*
X161631333Y-124597390D02*
X161631333Y-124740247D01*
X161631333Y-124740247D02*
X161583714Y-124930723D01*
X161583714Y-124930723D02*
X161536095Y-125025961D01*
X161536095Y-125025961D02*
X161440857Y-125121200D01*
X161440857Y-125121200D02*
X161298000Y-125168819D01*
X161298000Y-125168819D02*
X161059905Y-125168819D01*
X162583714Y-125168819D02*
X162012286Y-125168819D01*
X162298000Y-125168819D02*
X162298000Y-124168819D01*
X162298000Y-124168819D02*
X162202762Y-124311676D01*
X162202762Y-124311676D02*
X162107524Y-124406914D01*
X162107524Y-124406914D02*
X162012286Y-124454533D01*
X160560295Y-128485428D02*
X160560295Y-128942571D01*
X160560295Y-128713999D02*
X159760295Y-128713999D01*
X159760295Y-128713999D02*
X159874580Y-128790190D01*
X159874580Y-128790190D02*
X159950771Y-128866380D01*
X159950771Y-128866380D02*
X159988866Y-128942571D01*
X137755333Y-115421580D02*
X137707714Y-115469200D01*
X137707714Y-115469200D02*
X137564857Y-115516819D01*
X137564857Y-115516819D02*
X137469619Y-115516819D01*
X137469619Y-115516819D02*
X137326762Y-115469200D01*
X137326762Y-115469200D02*
X137231524Y-115373961D01*
X137231524Y-115373961D02*
X137183905Y-115278723D01*
X137183905Y-115278723D02*
X137136286Y-115088247D01*
X137136286Y-115088247D02*
X137136286Y-114945390D01*
X137136286Y-114945390D02*
X137183905Y-114754914D01*
X137183905Y-114754914D02*
X137231524Y-114659676D01*
X137231524Y-114659676D02*
X137326762Y-114564438D01*
X137326762Y-114564438D02*
X137469619Y-114516819D01*
X137469619Y-114516819D02*
X137564857Y-114516819D01*
X137564857Y-114516819D02*
X137707714Y-114564438D01*
X137707714Y-114564438D02*
X137755333Y-114612057D01*
X138088667Y-114516819D02*
X138755333Y-114516819D01*
X138755333Y-114516819D02*
X138326762Y-115516819D01*
X132232905Y-110500819D02*
X132232905Y-109500819D01*
X132232905Y-109500819D02*
X132471000Y-109500819D01*
X132471000Y-109500819D02*
X132613857Y-109548438D01*
X132613857Y-109548438D02*
X132709095Y-109643676D01*
X132709095Y-109643676D02*
X132756714Y-109738914D01*
X132756714Y-109738914D02*
X132804333Y-109929390D01*
X132804333Y-109929390D02*
X132804333Y-110072247D01*
X132804333Y-110072247D02*
X132756714Y-110262723D01*
X132756714Y-110262723D02*
X132709095Y-110357961D01*
X132709095Y-110357961D02*
X132613857Y-110453200D01*
X132613857Y-110453200D02*
X132471000Y-110500819D01*
X132471000Y-110500819D02*
X132232905Y-110500819D01*
X133661476Y-109834152D02*
X133661476Y-110500819D01*
X133423381Y-109453200D02*
X133185286Y-110167485D01*
X133185286Y-110167485D02*
X133804333Y-110167485D01*
X179772666Y-142456819D02*
X179772666Y-143171104D01*
X179772666Y-143171104D02*
X179725047Y-143313961D01*
X179725047Y-143313961D02*
X179629809Y-143409200D01*
X179629809Y-143409200D02*
X179486952Y-143456819D01*
X179486952Y-143456819D02*
X179391714Y-143456819D01*
X180677428Y-142456819D02*
X180486952Y-142456819D01*
X180486952Y-142456819D02*
X180391714Y-142504438D01*
X180391714Y-142504438D02*
X180344095Y-142552057D01*
X180344095Y-142552057D02*
X180248857Y-142694914D01*
X180248857Y-142694914D02*
X180201238Y-142885390D01*
X180201238Y-142885390D02*
X180201238Y-143266342D01*
X180201238Y-143266342D02*
X180248857Y-143361580D01*
X180248857Y-143361580D02*
X180296476Y-143409200D01*
X180296476Y-143409200D02*
X180391714Y-143456819D01*
X180391714Y-143456819D02*
X180582190Y-143456819D01*
X180582190Y-143456819D02*
X180677428Y-143409200D01*
X180677428Y-143409200D02*
X180725047Y-143361580D01*
X180725047Y-143361580D02*
X180772666Y-143266342D01*
X180772666Y-143266342D02*
X180772666Y-143028247D01*
X180772666Y-143028247D02*
X180725047Y-142933009D01*
X180725047Y-142933009D02*
X180677428Y-142885390D01*
X180677428Y-142885390D02*
X180582190Y-142837771D01*
X180582190Y-142837771D02*
X180391714Y-142837771D01*
X180391714Y-142837771D02*
X180296476Y-142885390D01*
X180296476Y-142885390D02*
X180248857Y-142933009D01*
X180248857Y-142933009D02*
X180201238Y-143028247D01*
X129101333Y-115600580D02*
X129053714Y-115648200D01*
X129053714Y-115648200D02*
X128910857Y-115695819D01*
X128910857Y-115695819D02*
X128815619Y-115695819D01*
X128815619Y-115695819D02*
X128672762Y-115648200D01*
X128672762Y-115648200D02*
X128577524Y-115552961D01*
X128577524Y-115552961D02*
X128529905Y-115457723D01*
X128529905Y-115457723D02*
X128482286Y-115267247D01*
X128482286Y-115267247D02*
X128482286Y-115124390D01*
X128482286Y-115124390D02*
X128529905Y-114933914D01*
X128529905Y-114933914D02*
X128577524Y-114838676D01*
X128577524Y-114838676D02*
X128672762Y-114743438D01*
X128672762Y-114743438D02*
X128815619Y-114695819D01*
X128815619Y-114695819D02*
X128910857Y-114695819D01*
X128910857Y-114695819D02*
X129053714Y-114743438D01*
X129053714Y-114743438D02*
X129101333Y-114791057D01*
X129482286Y-114791057D02*
X129529905Y-114743438D01*
X129529905Y-114743438D02*
X129625143Y-114695819D01*
X129625143Y-114695819D02*
X129863238Y-114695819D01*
X129863238Y-114695819D02*
X129958476Y-114743438D01*
X129958476Y-114743438D02*
X130006095Y-114791057D01*
X130006095Y-114791057D02*
X130053714Y-114886295D01*
X130053714Y-114886295D02*
X130053714Y-114981533D01*
X130053714Y-114981533D02*
X130006095Y-115124390D01*
X130006095Y-115124390D02*
X129434667Y-115695819D01*
X129434667Y-115695819D02*
X130053714Y-115695819D01*
X120833333Y-129954819D02*
X120500000Y-129478628D01*
X120261905Y-129954819D02*
X120261905Y-128954819D01*
X120261905Y-128954819D02*
X120642857Y-128954819D01*
X120642857Y-128954819D02*
X120738095Y-129002438D01*
X120738095Y-129002438D02*
X120785714Y-129050057D01*
X120785714Y-129050057D02*
X120833333Y-129145295D01*
X120833333Y-129145295D02*
X120833333Y-129288152D01*
X120833333Y-129288152D02*
X120785714Y-129383390D01*
X120785714Y-129383390D02*
X120738095Y-129431009D01*
X120738095Y-129431009D02*
X120642857Y-129478628D01*
X120642857Y-129478628D02*
X120261905Y-129478628D01*
X121404762Y-129383390D02*
X121309524Y-129335771D01*
X121309524Y-129335771D02*
X121261905Y-129288152D01*
X121261905Y-129288152D02*
X121214286Y-129192914D01*
X121214286Y-129192914D02*
X121214286Y-129145295D01*
X121214286Y-129145295D02*
X121261905Y-129050057D01*
X121261905Y-129050057D02*
X121309524Y-129002438D01*
X121309524Y-129002438D02*
X121404762Y-128954819D01*
X121404762Y-128954819D02*
X121595238Y-128954819D01*
X121595238Y-128954819D02*
X121690476Y-129002438D01*
X121690476Y-129002438D02*
X121738095Y-129050057D01*
X121738095Y-129050057D02*
X121785714Y-129145295D01*
X121785714Y-129145295D02*
X121785714Y-129192914D01*
X121785714Y-129192914D02*
X121738095Y-129288152D01*
X121738095Y-129288152D02*
X121690476Y-129335771D01*
X121690476Y-129335771D02*
X121595238Y-129383390D01*
X121595238Y-129383390D02*
X121404762Y-129383390D01*
X121404762Y-129383390D02*
X121309524Y-129431009D01*
X121309524Y-129431009D02*
X121261905Y-129478628D01*
X121261905Y-129478628D02*
X121214286Y-129573866D01*
X121214286Y-129573866D02*
X121214286Y-129764342D01*
X121214286Y-129764342D02*
X121261905Y-129859580D01*
X121261905Y-129859580D02*
X121309524Y-129907200D01*
X121309524Y-129907200D02*
X121404762Y-129954819D01*
X121404762Y-129954819D02*
X121595238Y-129954819D01*
X121595238Y-129954819D02*
X121690476Y-129907200D01*
X121690476Y-129907200D02*
X121738095Y-129859580D01*
X121738095Y-129859580D02*
X121785714Y-129764342D01*
X121785714Y-129764342D02*
X121785714Y-129573866D01*
X121785714Y-129573866D02*
X121738095Y-129478628D01*
X121738095Y-129478628D02*
X121690476Y-129431009D01*
X121690476Y-129431009D02*
X121595238Y-129383390D01*
X185253333Y-126597580D02*
X185205714Y-126645200D01*
X185205714Y-126645200D02*
X185062857Y-126692819D01*
X185062857Y-126692819D02*
X184967619Y-126692819D01*
X184967619Y-126692819D02*
X184824762Y-126645200D01*
X184824762Y-126645200D02*
X184729524Y-126549961D01*
X184729524Y-126549961D02*
X184681905Y-126454723D01*
X184681905Y-126454723D02*
X184634286Y-126264247D01*
X184634286Y-126264247D02*
X184634286Y-126121390D01*
X184634286Y-126121390D02*
X184681905Y-125930914D01*
X184681905Y-125930914D02*
X184729524Y-125835676D01*
X184729524Y-125835676D02*
X184824762Y-125740438D01*
X184824762Y-125740438D02*
X184967619Y-125692819D01*
X184967619Y-125692819D02*
X185062857Y-125692819D01*
X185062857Y-125692819D02*
X185205714Y-125740438D01*
X185205714Y-125740438D02*
X185253333Y-125788057D01*
X185824762Y-126121390D02*
X185729524Y-126073771D01*
X185729524Y-126073771D02*
X185681905Y-126026152D01*
X185681905Y-126026152D02*
X185634286Y-125930914D01*
X185634286Y-125930914D02*
X185634286Y-125883295D01*
X185634286Y-125883295D02*
X185681905Y-125788057D01*
X185681905Y-125788057D02*
X185729524Y-125740438D01*
X185729524Y-125740438D02*
X185824762Y-125692819D01*
X185824762Y-125692819D02*
X186015238Y-125692819D01*
X186015238Y-125692819D02*
X186110476Y-125740438D01*
X186110476Y-125740438D02*
X186158095Y-125788057D01*
X186158095Y-125788057D02*
X186205714Y-125883295D01*
X186205714Y-125883295D02*
X186205714Y-125930914D01*
X186205714Y-125930914D02*
X186158095Y-126026152D01*
X186158095Y-126026152D02*
X186110476Y-126073771D01*
X186110476Y-126073771D02*
X186015238Y-126121390D01*
X186015238Y-126121390D02*
X185824762Y-126121390D01*
X185824762Y-126121390D02*
X185729524Y-126169009D01*
X185729524Y-126169009D02*
X185681905Y-126216628D01*
X185681905Y-126216628D02*
X185634286Y-126311866D01*
X185634286Y-126311866D02*
X185634286Y-126502342D01*
X185634286Y-126502342D02*
X185681905Y-126597580D01*
X185681905Y-126597580D02*
X185729524Y-126645200D01*
X185729524Y-126645200D02*
X185824762Y-126692819D01*
X185824762Y-126692819D02*
X186015238Y-126692819D01*
X186015238Y-126692819D02*
X186110476Y-126645200D01*
X186110476Y-126645200D02*
X186158095Y-126597580D01*
X186158095Y-126597580D02*
X186205714Y-126502342D01*
X186205714Y-126502342D02*
X186205714Y-126311866D01*
X186205714Y-126311866D02*
X186158095Y-126216628D01*
X186158095Y-126216628D02*
X186110476Y-126169009D01*
X186110476Y-126169009D02*
X186015238Y-126121390D01*
X146423142Y-98149580D02*
X146375523Y-98197200D01*
X146375523Y-98197200D02*
X146232666Y-98244819D01*
X146232666Y-98244819D02*
X146137428Y-98244819D01*
X146137428Y-98244819D02*
X145994571Y-98197200D01*
X145994571Y-98197200D02*
X145899333Y-98101961D01*
X145899333Y-98101961D02*
X145851714Y-98006723D01*
X145851714Y-98006723D02*
X145804095Y-97816247D01*
X145804095Y-97816247D02*
X145804095Y-97673390D01*
X145804095Y-97673390D02*
X145851714Y-97482914D01*
X145851714Y-97482914D02*
X145899333Y-97387676D01*
X145899333Y-97387676D02*
X145994571Y-97292438D01*
X145994571Y-97292438D02*
X146137428Y-97244819D01*
X146137428Y-97244819D02*
X146232666Y-97244819D01*
X146232666Y-97244819D02*
X146375523Y-97292438D01*
X146375523Y-97292438D02*
X146423142Y-97340057D01*
X146804095Y-97340057D02*
X146851714Y-97292438D01*
X146851714Y-97292438D02*
X146946952Y-97244819D01*
X146946952Y-97244819D02*
X147185047Y-97244819D01*
X147185047Y-97244819D02*
X147280285Y-97292438D01*
X147280285Y-97292438D02*
X147327904Y-97340057D01*
X147327904Y-97340057D02*
X147375523Y-97435295D01*
X147375523Y-97435295D02*
X147375523Y-97530533D01*
X147375523Y-97530533D02*
X147327904Y-97673390D01*
X147327904Y-97673390D02*
X146756476Y-98244819D01*
X146756476Y-98244819D02*
X147375523Y-98244819D01*
X147756476Y-97340057D02*
X147804095Y-97292438D01*
X147804095Y-97292438D02*
X147899333Y-97244819D01*
X147899333Y-97244819D02*
X148137428Y-97244819D01*
X148137428Y-97244819D02*
X148232666Y-97292438D01*
X148232666Y-97292438D02*
X148280285Y-97340057D01*
X148280285Y-97340057D02*
X148327904Y-97435295D01*
X148327904Y-97435295D02*
X148327904Y-97530533D01*
X148327904Y-97530533D02*
X148280285Y-97673390D01*
X148280285Y-97673390D02*
X147708857Y-98244819D01*
X147708857Y-98244819D02*
X148327904Y-98244819D01*
X154686095Y-108674819D02*
X154686095Y-109484342D01*
X154686095Y-109484342D02*
X154733714Y-109579580D01*
X154733714Y-109579580D02*
X154781333Y-109627200D01*
X154781333Y-109627200D02*
X154876571Y-109674819D01*
X154876571Y-109674819D02*
X155067047Y-109674819D01*
X155067047Y-109674819D02*
X155162285Y-109627200D01*
X155162285Y-109627200D02*
X155209904Y-109579580D01*
X155209904Y-109579580D02*
X155257523Y-109484342D01*
X155257523Y-109484342D02*
X155257523Y-108674819D01*
X156162285Y-108674819D02*
X155971809Y-108674819D01*
X155971809Y-108674819D02*
X155876571Y-108722438D01*
X155876571Y-108722438D02*
X155828952Y-108770057D01*
X155828952Y-108770057D02*
X155733714Y-108912914D01*
X155733714Y-108912914D02*
X155686095Y-109103390D01*
X155686095Y-109103390D02*
X155686095Y-109484342D01*
X155686095Y-109484342D02*
X155733714Y-109579580D01*
X155733714Y-109579580D02*
X155781333Y-109627200D01*
X155781333Y-109627200D02*
X155876571Y-109674819D01*
X155876571Y-109674819D02*
X156067047Y-109674819D01*
X156067047Y-109674819D02*
X156162285Y-109627200D01*
X156162285Y-109627200D02*
X156209904Y-109579580D01*
X156209904Y-109579580D02*
X156257523Y-109484342D01*
X156257523Y-109484342D02*
X156257523Y-109246247D01*
X156257523Y-109246247D02*
X156209904Y-109151009D01*
X156209904Y-109151009D02*
X156162285Y-109103390D01*
X156162285Y-109103390D02*
X156067047Y-109055771D01*
X156067047Y-109055771D02*
X155876571Y-109055771D01*
X155876571Y-109055771D02*
X155781333Y-109103390D01*
X155781333Y-109103390D02*
X155733714Y-109151009D01*
X155733714Y-109151009D02*
X155686095Y-109246247D01*
X163329580Y-137040857D02*
X163377200Y-137088476D01*
X163377200Y-137088476D02*
X163424819Y-137231333D01*
X163424819Y-137231333D02*
X163424819Y-137326571D01*
X163424819Y-137326571D02*
X163377200Y-137469428D01*
X163377200Y-137469428D02*
X163281961Y-137564666D01*
X163281961Y-137564666D02*
X163186723Y-137612285D01*
X163186723Y-137612285D02*
X162996247Y-137659904D01*
X162996247Y-137659904D02*
X162853390Y-137659904D01*
X162853390Y-137659904D02*
X162662914Y-137612285D01*
X162662914Y-137612285D02*
X162567676Y-137564666D01*
X162567676Y-137564666D02*
X162472438Y-137469428D01*
X162472438Y-137469428D02*
X162424819Y-137326571D01*
X162424819Y-137326571D02*
X162424819Y-137231333D01*
X162424819Y-137231333D02*
X162472438Y-137088476D01*
X162472438Y-137088476D02*
X162520057Y-137040857D01*
X162520057Y-136659904D02*
X162472438Y-136612285D01*
X162472438Y-136612285D02*
X162424819Y-136517047D01*
X162424819Y-136517047D02*
X162424819Y-136278952D01*
X162424819Y-136278952D02*
X162472438Y-136183714D01*
X162472438Y-136183714D02*
X162520057Y-136136095D01*
X162520057Y-136136095D02*
X162615295Y-136088476D01*
X162615295Y-136088476D02*
X162710533Y-136088476D01*
X162710533Y-136088476D02*
X162853390Y-136136095D01*
X162853390Y-136136095D02*
X163424819Y-136707523D01*
X163424819Y-136707523D02*
X163424819Y-136088476D01*
X163424819Y-135136095D02*
X163424819Y-135707523D01*
X163424819Y-135421809D02*
X162424819Y-135421809D01*
X162424819Y-135421809D02*
X162567676Y-135517047D01*
X162567676Y-135517047D02*
X162662914Y-135612285D01*
X162662914Y-135612285D02*
X162710533Y-135707523D01*
X161409142Y-103229580D02*
X161361523Y-103277200D01*
X161361523Y-103277200D02*
X161218666Y-103324819D01*
X161218666Y-103324819D02*
X161123428Y-103324819D01*
X161123428Y-103324819D02*
X160980571Y-103277200D01*
X160980571Y-103277200D02*
X160885333Y-103181961D01*
X160885333Y-103181961D02*
X160837714Y-103086723D01*
X160837714Y-103086723D02*
X160790095Y-102896247D01*
X160790095Y-102896247D02*
X160790095Y-102753390D01*
X160790095Y-102753390D02*
X160837714Y-102562914D01*
X160837714Y-102562914D02*
X160885333Y-102467676D01*
X160885333Y-102467676D02*
X160980571Y-102372438D01*
X160980571Y-102372438D02*
X161123428Y-102324819D01*
X161123428Y-102324819D02*
X161218666Y-102324819D01*
X161218666Y-102324819D02*
X161361523Y-102372438D01*
X161361523Y-102372438D02*
X161409142Y-102420057D01*
X162361523Y-103324819D02*
X161790095Y-103324819D01*
X162075809Y-103324819D02*
X162075809Y-102324819D01*
X162075809Y-102324819D02*
X161980571Y-102467676D01*
X161980571Y-102467676D02*
X161885333Y-102562914D01*
X161885333Y-102562914D02*
X161790095Y-102610533D01*
X162932952Y-102753390D02*
X162837714Y-102705771D01*
X162837714Y-102705771D02*
X162790095Y-102658152D01*
X162790095Y-102658152D02*
X162742476Y-102562914D01*
X162742476Y-102562914D02*
X162742476Y-102515295D01*
X162742476Y-102515295D02*
X162790095Y-102420057D01*
X162790095Y-102420057D02*
X162837714Y-102372438D01*
X162837714Y-102372438D02*
X162932952Y-102324819D01*
X162932952Y-102324819D02*
X163123428Y-102324819D01*
X163123428Y-102324819D02*
X163218666Y-102372438D01*
X163218666Y-102372438D02*
X163266285Y-102420057D01*
X163266285Y-102420057D02*
X163313904Y-102515295D01*
X163313904Y-102515295D02*
X163313904Y-102562914D01*
X163313904Y-102562914D02*
X163266285Y-102658152D01*
X163266285Y-102658152D02*
X163218666Y-102705771D01*
X163218666Y-102705771D02*
X163123428Y-102753390D01*
X163123428Y-102753390D02*
X162932952Y-102753390D01*
X162932952Y-102753390D02*
X162837714Y-102801009D01*
X162837714Y-102801009D02*
X162790095Y-102848628D01*
X162790095Y-102848628D02*
X162742476Y-102943866D01*
X162742476Y-102943866D02*
X162742476Y-103134342D01*
X162742476Y-103134342D02*
X162790095Y-103229580D01*
X162790095Y-103229580D02*
X162837714Y-103277200D01*
X162837714Y-103277200D02*
X162932952Y-103324819D01*
X162932952Y-103324819D02*
X163123428Y-103324819D01*
X163123428Y-103324819D02*
X163218666Y-103277200D01*
X163218666Y-103277200D02*
X163266285Y-103229580D01*
X163266285Y-103229580D02*
X163313904Y-103134342D01*
X163313904Y-103134342D02*
X163313904Y-102943866D01*
X163313904Y-102943866D02*
X163266285Y-102848628D01*
X163266285Y-102848628D02*
X163218666Y-102801009D01*
X163218666Y-102801009D02*
X163123428Y-102753390D01*
X116166666Y-117931009D02*
X115833333Y-117931009D01*
X115833333Y-118454819D02*
X115833333Y-117454819D01*
X115833333Y-117454819D02*
X116309523Y-117454819D01*
X117214285Y-118454819D02*
X116642857Y-118454819D01*
X116928571Y-118454819D02*
X116928571Y-117454819D01*
X116928571Y-117454819D02*
X116833333Y-117597676D01*
X116833333Y-117597676D02*
X116738095Y-117692914D01*
X116738095Y-117692914D02*
X116642857Y-117740533D01*
X154686095Y-99530819D02*
X154686095Y-100340342D01*
X154686095Y-100340342D02*
X154733714Y-100435580D01*
X154733714Y-100435580D02*
X154781333Y-100483200D01*
X154781333Y-100483200D02*
X154876571Y-100530819D01*
X154876571Y-100530819D02*
X155067047Y-100530819D01*
X155067047Y-100530819D02*
X155162285Y-100483200D01*
X155162285Y-100483200D02*
X155209904Y-100435580D01*
X155209904Y-100435580D02*
X155257523Y-100340342D01*
X155257523Y-100340342D02*
X155257523Y-99530819D01*
X155638476Y-99530819D02*
X156257523Y-99530819D01*
X156257523Y-99530819D02*
X155924190Y-99911771D01*
X155924190Y-99911771D02*
X156067047Y-99911771D01*
X156067047Y-99911771D02*
X156162285Y-99959390D01*
X156162285Y-99959390D02*
X156209904Y-100007009D01*
X156209904Y-100007009D02*
X156257523Y-100102247D01*
X156257523Y-100102247D02*
X156257523Y-100340342D01*
X156257523Y-100340342D02*
X156209904Y-100435580D01*
X156209904Y-100435580D02*
X156162285Y-100483200D01*
X156162285Y-100483200D02*
X156067047Y-100530819D01*
X156067047Y-100530819D02*
X155781333Y-100530819D01*
X155781333Y-100530819D02*
X155686095Y-100483200D01*
X155686095Y-100483200D02*
X155638476Y-100435580D01*
X150741142Y-121330580D02*
X150693523Y-121378200D01*
X150693523Y-121378200D02*
X150550666Y-121425819D01*
X150550666Y-121425819D02*
X150455428Y-121425819D01*
X150455428Y-121425819D02*
X150312571Y-121378200D01*
X150312571Y-121378200D02*
X150217333Y-121282961D01*
X150217333Y-121282961D02*
X150169714Y-121187723D01*
X150169714Y-121187723D02*
X150122095Y-120997247D01*
X150122095Y-120997247D02*
X150122095Y-120854390D01*
X150122095Y-120854390D02*
X150169714Y-120663914D01*
X150169714Y-120663914D02*
X150217333Y-120568676D01*
X150217333Y-120568676D02*
X150312571Y-120473438D01*
X150312571Y-120473438D02*
X150455428Y-120425819D01*
X150455428Y-120425819D02*
X150550666Y-120425819D01*
X150550666Y-120425819D02*
X150693523Y-120473438D01*
X150693523Y-120473438D02*
X150741142Y-120521057D01*
X151122095Y-120521057D02*
X151169714Y-120473438D01*
X151169714Y-120473438D02*
X151264952Y-120425819D01*
X151264952Y-120425819D02*
X151503047Y-120425819D01*
X151503047Y-120425819D02*
X151598285Y-120473438D01*
X151598285Y-120473438D02*
X151645904Y-120521057D01*
X151645904Y-120521057D02*
X151693523Y-120616295D01*
X151693523Y-120616295D02*
X151693523Y-120711533D01*
X151693523Y-120711533D02*
X151645904Y-120854390D01*
X151645904Y-120854390D02*
X151074476Y-121425819D01*
X151074476Y-121425819D02*
X151693523Y-121425819D01*
X152312571Y-120425819D02*
X152407809Y-120425819D01*
X152407809Y-120425819D02*
X152503047Y-120473438D01*
X152503047Y-120473438D02*
X152550666Y-120521057D01*
X152550666Y-120521057D02*
X152598285Y-120616295D01*
X152598285Y-120616295D02*
X152645904Y-120806771D01*
X152645904Y-120806771D02*
X152645904Y-121044866D01*
X152645904Y-121044866D02*
X152598285Y-121235342D01*
X152598285Y-121235342D02*
X152550666Y-121330580D01*
X152550666Y-121330580D02*
X152503047Y-121378200D01*
X152503047Y-121378200D02*
X152407809Y-121425819D01*
X152407809Y-121425819D02*
X152312571Y-121425819D01*
X152312571Y-121425819D02*
X152217333Y-121378200D01*
X152217333Y-121378200D02*
X152169714Y-121330580D01*
X152169714Y-121330580D02*
X152122095Y-121235342D01*
X152122095Y-121235342D02*
X152074476Y-121044866D01*
X152074476Y-121044866D02*
X152074476Y-120806771D01*
X152074476Y-120806771D02*
X152122095Y-120616295D01*
X152122095Y-120616295D02*
X152169714Y-120521057D01*
X152169714Y-120521057D02*
X152217333Y-120473438D01*
X152217333Y-120473438D02*
X152312571Y-120425819D01*
X120833333Y-122454819D02*
X120500000Y-121978628D01*
X120261905Y-122454819D02*
X120261905Y-121454819D01*
X120261905Y-121454819D02*
X120642857Y-121454819D01*
X120642857Y-121454819D02*
X120738095Y-121502438D01*
X120738095Y-121502438D02*
X120785714Y-121550057D01*
X120785714Y-121550057D02*
X120833333Y-121645295D01*
X120833333Y-121645295D02*
X120833333Y-121788152D01*
X120833333Y-121788152D02*
X120785714Y-121883390D01*
X120785714Y-121883390D02*
X120738095Y-121931009D01*
X120738095Y-121931009D02*
X120642857Y-121978628D01*
X120642857Y-121978628D02*
X120261905Y-121978628D01*
X121166667Y-121454819D02*
X121833333Y-121454819D01*
X121833333Y-121454819D02*
X121404762Y-122454819D01*
X169084666Y-98514819D02*
X169084666Y-99229104D01*
X169084666Y-99229104D02*
X169037047Y-99371961D01*
X169037047Y-99371961D02*
X168941809Y-99467200D01*
X168941809Y-99467200D02*
X168798952Y-99514819D01*
X168798952Y-99514819D02*
X168703714Y-99514819D01*
X170037047Y-98514819D02*
X169560857Y-98514819D01*
X169560857Y-98514819D02*
X169513238Y-98991009D01*
X169513238Y-98991009D02*
X169560857Y-98943390D01*
X169560857Y-98943390D02*
X169656095Y-98895771D01*
X169656095Y-98895771D02*
X169894190Y-98895771D01*
X169894190Y-98895771D02*
X169989428Y-98943390D01*
X169989428Y-98943390D02*
X170037047Y-98991009D01*
X170037047Y-98991009D02*
X170084666Y-99086247D01*
X170084666Y-99086247D02*
X170084666Y-99324342D01*
X170084666Y-99324342D02*
X170037047Y-99419580D01*
X170037047Y-99419580D02*
X169989428Y-99467200D01*
X169989428Y-99467200D02*
X169894190Y-99514819D01*
X169894190Y-99514819D02*
X169656095Y-99514819D01*
X169656095Y-99514819D02*
X169560857Y-99467200D01*
X169560857Y-99467200D02*
X169513238Y-99419580D01*
X161409142Y-114913580D02*
X161361523Y-114961200D01*
X161361523Y-114961200D02*
X161218666Y-115008819D01*
X161218666Y-115008819D02*
X161123428Y-115008819D01*
X161123428Y-115008819D02*
X160980571Y-114961200D01*
X160980571Y-114961200D02*
X160885333Y-114865961D01*
X160885333Y-114865961D02*
X160837714Y-114770723D01*
X160837714Y-114770723D02*
X160790095Y-114580247D01*
X160790095Y-114580247D02*
X160790095Y-114437390D01*
X160790095Y-114437390D02*
X160837714Y-114246914D01*
X160837714Y-114246914D02*
X160885333Y-114151676D01*
X160885333Y-114151676D02*
X160980571Y-114056438D01*
X160980571Y-114056438D02*
X161123428Y-114008819D01*
X161123428Y-114008819D02*
X161218666Y-114008819D01*
X161218666Y-114008819D02*
X161361523Y-114056438D01*
X161361523Y-114056438D02*
X161409142Y-114104057D01*
X162361523Y-115008819D02*
X161790095Y-115008819D01*
X162075809Y-115008819D02*
X162075809Y-114008819D01*
X162075809Y-114008819D02*
X161980571Y-114151676D01*
X161980571Y-114151676D02*
X161885333Y-114246914D01*
X161885333Y-114246914D02*
X161790095Y-114294533D01*
X163266285Y-114008819D02*
X162790095Y-114008819D01*
X162790095Y-114008819D02*
X162742476Y-114485009D01*
X162742476Y-114485009D02*
X162790095Y-114437390D01*
X162790095Y-114437390D02*
X162885333Y-114389771D01*
X162885333Y-114389771D02*
X163123428Y-114389771D01*
X163123428Y-114389771D02*
X163218666Y-114437390D01*
X163218666Y-114437390D02*
X163266285Y-114485009D01*
X163266285Y-114485009D02*
X163313904Y-114580247D01*
X163313904Y-114580247D02*
X163313904Y-114818342D01*
X163313904Y-114818342D02*
X163266285Y-114913580D01*
X163266285Y-114913580D02*
X163218666Y-114961200D01*
X163218666Y-114961200D02*
X163123428Y-115008819D01*
X163123428Y-115008819D02*
X162885333Y-115008819D01*
X162885333Y-115008819D02*
X162790095Y-114961200D01*
X162790095Y-114961200D02*
X162742476Y-114913580D01*
X161409142Y-93069580D02*
X161361523Y-93117200D01*
X161361523Y-93117200D02*
X161218666Y-93164819D01*
X161218666Y-93164819D02*
X161123428Y-93164819D01*
X161123428Y-93164819D02*
X160980571Y-93117200D01*
X160980571Y-93117200D02*
X160885333Y-93021961D01*
X160885333Y-93021961D02*
X160837714Y-92926723D01*
X160837714Y-92926723D02*
X160790095Y-92736247D01*
X160790095Y-92736247D02*
X160790095Y-92593390D01*
X160790095Y-92593390D02*
X160837714Y-92402914D01*
X160837714Y-92402914D02*
X160885333Y-92307676D01*
X160885333Y-92307676D02*
X160980571Y-92212438D01*
X160980571Y-92212438D02*
X161123428Y-92164819D01*
X161123428Y-92164819D02*
X161218666Y-92164819D01*
X161218666Y-92164819D02*
X161361523Y-92212438D01*
X161361523Y-92212438D02*
X161409142Y-92260057D01*
X162361523Y-93164819D02*
X161790095Y-93164819D01*
X162075809Y-93164819D02*
X162075809Y-92164819D01*
X162075809Y-92164819D02*
X161980571Y-92307676D01*
X161980571Y-92307676D02*
X161885333Y-92402914D01*
X161885333Y-92402914D02*
X161790095Y-92450533D01*
X162694857Y-92164819D02*
X163361523Y-92164819D01*
X163361523Y-92164819D02*
X162932952Y-93164819D01*
X122682095Y-123054819D02*
X122682095Y-123864342D01*
X122682095Y-123864342D02*
X122729714Y-123959580D01*
X122729714Y-123959580D02*
X122777333Y-124007200D01*
X122777333Y-124007200D02*
X122872571Y-124054819D01*
X122872571Y-124054819D02*
X123063047Y-124054819D01*
X123063047Y-124054819D02*
X123158285Y-124007200D01*
X123158285Y-124007200D02*
X123205904Y-123959580D01*
X123205904Y-123959580D02*
X123253523Y-123864342D01*
X123253523Y-123864342D02*
X123253523Y-123054819D01*
X124205904Y-123054819D02*
X123729714Y-123054819D01*
X123729714Y-123054819D02*
X123682095Y-123531009D01*
X123682095Y-123531009D02*
X123729714Y-123483390D01*
X123729714Y-123483390D02*
X123824952Y-123435771D01*
X123824952Y-123435771D02*
X124063047Y-123435771D01*
X124063047Y-123435771D02*
X124158285Y-123483390D01*
X124158285Y-123483390D02*
X124205904Y-123531009D01*
X124205904Y-123531009D02*
X124253523Y-123626247D01*
X124253523Y-123626247D02*
X124253523Y-123864342D01*
X124253523Y-123864342D02*
X124205904Y-123959580D01*
X124205904Y-123959580D02*
X124158285Y-124007200D01*
X124158285Y-124007200D02*
X124063047Y-124054819D01*
X124063047Y-124054819D02*
X123824952Y-124054819D01*
X123824952Y-124054819D02*
X123729714Y-124007200D01*
X123729714Y-124007200D02*
X123682095Y-123959580D01*
X118284666Y-102324819D02*
X118284666Y-103039104D01*
X118284666Y-103039104D02*
X118237047Y-103181961D01*
X118237047Y-103181961D02*
X118141809Y-103277200D01*
X118141809Y-103277200D02*
X117998952Y-103324819D01*
X117998952Y-103324819D02*
X117903714Y-103324819D01*
X119189428Y-102658152D02*
X119189428Y-103324819D01*
X118951333Y-102277200D02*
X118713238Y-102991485D01*
X118713238Y-102991485D02*
X119332285Y-102991485D01*
X174331333Y-126597580D02*
X174283714Y-126645200D01*
X174283714Y-126645200D02*
X174140857Y-126692819D01*
X174140857Y-126692819D02*
X174045619Y-126692819D01*
X174045619Y-126692819D02*
X173902762Y-126645200D01*
X173902762Y-126645200D02*
X173807524Y-126549961D01*
X173807524Y-126549961D02*
X173759905Y-126454723D01*
X173759905Y-126454723D02*
X173712286Y-126264247D01*
X173712286Y-126264247D02*
X173712286Y-126121390D01*
X173712286Y-126121390D02*
X173759905Y-125930914D01*
X173759905Y-125930914D02*
X173807524Y-125835676D01*
X173807524Y-125835676D02*
X173902762Y-125740438D01*
X173902762Y-125740438D02*
X174045619Y-125692819D01*
X174045619Y-125692819D02*
X174140857Y-125692819D01*
X174140857Y-125692819D02*
X174283714Y-125740438D01*
X174283714Y-125740438D02*
X174331333Y-125788057D01*
X175188476Y-125692819D02*
X174998000Y-125692819D01*
X174998000Y-125692819D02*
X174902762Y-125740438D01*
X174902762Y-125740438D02*
X174855143Y-125788057D01*
X174855143Y-125788057D02*
X174759905Y-125930914D01*
X174759905Y-125930914D02*
X174712286Y-126121390D01*
X174712286Y-126121390D02*
X174712286Y-126502342D01*
X174712286Y-126502342D02*
X174759905Y-126597580D01*
X174759905Y-126597580D02*
X174807524Y-126645200D01*
X174807524Y-126645200D02*
X174902762Y-126692819D01*
X174902762Y-126692819D02*
X175093238Y-126692819D01*
X175093238Y-126692819D02*
X175188476Y-126645200D01*
X175188476Y-126645200D02*
X175236095Y-126597580D01*
X175236095Y-126597580D02*
X175283714Y-126502342D01*
X175283714Y-126502342D02*
X175283714Y-126264247D01*
X175283714Y-126264247D02*
X175236095Y-126169009D01*
X175236095Y-126169009D02*
X175188476Y-126121390D01*
X175188476Y-126121390D02*
X175093238Y-126073771D01*
X175093238Y-126073771D02*
X174902762Y-126073771D01*
X174902762Y-126073771D02*
X174807524Y-126121390D01*
X174807524Y-126121390D02*
X174759905Y-126169009D01*
X174759905Y-126169009D02*
X174712286Y-126264247D01*
X111921666Y-125454819D02*
X111921666Y-126169104D01*
X111921666Y-126169104D02*
X111874047Y-126311961D01*
X111874047Y-126311961D02*
X111778809Y-126407200D01*
X111778809Y-126407200D02*
X111635952Y-126454819D01*
X111635952Y-126454819D02*
X111540714Y-126454819D01*
X112302619Y-125454819D02*
X112921666Y-125454819D01*
X112921666Y-125454819D02*
X112588333Y-125835771D01*
X112588333Y-125835771D02*
X112731190Y-125835771D01*
X112731190Y-125835771D02*
X112826428Y-125883390D01*
X112826428Y-125883390D02*
X112874047Y-125931009D01*
X112874047Y-125931009D02*
X112921666Y-126026247D01*
X112921666Y-126026247D02*
X112921666Y-126264342D01*
X112921666Y-126264342D02*
X112874047Y-126359580D01*
X112874047Y-126359580D02*
X112826428Y-126407200D01*
X112826428Y-126407200D02*
X112731190Y-126454819D01*
X112731190Y-126454819D02*
X112445476Y-126454819D01*
X112445476Y-126454819D02*
X112350238Y-126407200D01*
X112350238Y-126407200D02*
X112302619Y-126359580D01*
X174331333Y-129899580D02*
X174283714Y-129947200D01*
X174283714Y-129947200D02*
X174140857Y-129994819D01*
X174140857Y-129994819D02*
X174045619Y-129994819D01*
X174045619Y-129994819D02*
X173902762Y-129947200D01*
X173902762Y-129947200D02*
X173807524Y-129851961D01*
X173807524Y-129851961D02*
X173759905Y-129756723D01*
X173759905Y-129756723D02*
X173712286Y-129566247D01*
X173712286Y-129566247D02*
X173712286Y-129423390D01*
X173712286Y-129423390D02*
X173759905Y-129232914D01*
X173759905Y-129232914D02*
X173807524Y-129137676D01*
X173807524Y-129137676D02*
X173902762Y-129042438D01*
X173902762Y-129042438D02*
X174045619Y-128994819D01*
X174045619Y-128994819D02*
X174140857Y-128994819D01*
X174140857Y-128994819D02*
X174283714Y-129042438D01*
X174283714Y-129042438D02*
X174331333Y-129090057D01*
X174807524Y-129994819D02*
X174998000Y-129994819D01*
X174998000Y-129994819D02*
X175093238Y-129947200D01*
X175093238Y-129947200D02*
X175140857Y-129899580D01*
X175140857Y-129899580D02*
X175236095Y-129756723D01*
X175236095Y-129756723D02*
X175283714Y-129566247D01*
X175283714Y-129566247D02*
X175283714Y-129185295D01*
X175283714Y-129185295D02*
X175236095Y-129090057D01*
X175236095Y-129090057D02*
X175188476Y-129042438D01*
X175188476Y-129042438D02*
X175093238Y-128994819D01*
X175093238Y-128994819D02*
X174902762Y-128994819D01*
X174902762Y-128994819D02*
X174807524Y-129042438D01*
X174807524Y-129042438D02*
X174759905Y-129090057D01*
X174759905Y-129090057D02*
X174712286Y-129185295D01*
X174712286Y-129185295D02*
X174712286Y-129423390D01*
X174712286Y-129423390D02*
X174759905Y-129518628D01*
X174759905Y-129518628D02*
X174807524Y-129566247D01*
X174807524Y-129566247D02*
X174902762Y-129613866D01*
X174902762Y-129613866D02*
X175093238Y-129613866D01*
X175093238Y-129613866D02*
X175188476Y-129566247D01*
X175188476Y-129566247D02*
X175236095Y-129518628D01*
X175236095Y-129518628D02*
X175283714Y-129423390D01*
X132149333Y-128594580D02*
X132101714Y-128642200D01*
X132101714Y-128642200D02*
X131958857Y-128689819D01*
X131958857Y-128689819D02*
X131863619Y-128689819D01*
X131863619Y-128689819D02*
X131720762Y-128642200D01*
X131720762Y-128642200D02*
X131625524Y-128546961D01*
X131625524Y-128546961D02*
X131577905Y-128451723D01*
X131577905Y-128451723D02*
X131530286Y-128261247D01*
X131530286Y-128261247D02*
X131530286Y-128118390D01*
X131530286Y-128118390D02*
X131577905Y-127927914D01*
X131577905Y-127927914D02*
X131625524Y-127832676D01*
X131625524Y-127832676D02*
X131720762Y-127737438D01*
X131720762Y-127737438D02*
X131863619Y-127689819D01*
X131863619Y-127689819D02*
X131958857Y-127689819D01*
X131958857Y-127689819D02*
X132101714Y-127737438D01*
X132101714Y-127737438D02*
X132149333Y-127785057D01*
X133006476Y-128023152D02*
X133006476Y-128689819D01*
X132768381Y-127642200D02*
X132530286Y-128356485D01*
X132530286Y-128356485D02*
X133149333Y-128356485D01*
X142414666Y-140678819D02*
X142414666Y-141393104D01*
X142414666Y-141393104D02*
X142367047Y-141535961D01*
X142367047Y-141535961D02*
X142271809Y-141631200D01*
X142271809Y-141631200D02*
X142128952Y-141678819D01*
X142128952Y-141678819D02*
X142033714Y-141678819D01*
X142843238Y-140774057D02*
X142890857Y-140726438D01*
X142890857Y-140726438D02*
X142986095Y-140678819D01*
X142986095Y-140678819D02*
X143224190Y-140678819D01*
X143224190Y-140678819D02*
X143319428Y-140726438D01*
X143319428Y-140726438D02*
X143367047Y-140774057D01*
X143367047Y-140774057D02*
X143414666Y-140869295D01*
X143414666Y-140869295D02*
X143414666Y-140964533D01*
X143414666Y-140964533D02*
X143367047Y-141107390D01*
X143367047Y-141107390D02*
X142795619Y-141678819D01*
X142795619Y-141678819D02*
X143414666Y-141678819D01*
X150223142Y-130555580D02*
X150175523Y-130603200D01*
X150175523Y-130603200D02*
X150032666Y-130650819D01*
X150032666Y-130650819D02*
X149937428Y-130650819D01*
X149937428Y-130650819D02*
X149794571Y-130603200D01*
X149794571Y-130603200D02*
X149699333Y-130507961D01*
X149699333Y-130507961D02*
X149651714Y-130412723D01*
X149651714Y-130412723D02*
X149604095Y-130222247D01*
X149604095Y-130222247D02*
X149604095Y-130079390D01*
X149604095Y-130079390D02*
X149651714Y-129888914D01*
X149651714Y-129888914D02*
X149699333Y-129793676D01*
X149699333Y-129793676D02*
X149794571Y-129698438D01*
X149794571Y-129698438D02*
X149937428Y-129650819D01*
X149937428Y-129650819D02*
X150032666Y-129650819D01*
X150032666Y-129650819D02*
X150175523Y-129698438D01*
X150175523Y-129698438D02*
X150223142Y-129746057D01*
X151175523Y-130650819D02*
X150604095Y-130650819D01*
X150889809Y-130650819D02*
X150889809Y-129650819D01*
X150889809Y-129650819D02*
X150794571Y-129793676D01*
X150794571Y-129793676D02*
X150699333Y-129888914D01*
X150699333Y-129888914D02*
X150604095Y-129936533D01*
X151651714Y-130650819D02*
X151842190Y-130650819D01*
X151842190Y-130650819D02*
X151937428Y-130603200D01*
X151937428Y-130603200D02*
X151985047Y-130555580D01*
X151985047Y-130555580D02*
X152080285Y-130412723D01*
X152080285Y-130412723D02*
X152127904Y-130222247D01*
X152127904Y-130222247D02*
X152127904Y-129841295D01*
X152127904Y-129841295D02*
X152080285Y-129746057D01*
X152080285Y-129746057D02*
X152032666Y-129698438D01*
X152032666Y-129698438D02*
X151937428Y-129650819D01*
X151937428Y-129650819D02*
X151746952Y-129650819D01*
X151746952Y-129650819D02*
X151651714Y-129698438D01*
X151651714Y-129698438D02*
X151604095Y-129746057D01*
X151604095Y-129746057D02*
X151556476Y-129841295D01*
X151556476Y-129841295D02*
X151556476Y-130079390D01*
X151556476Y-130079390D02*
X151604095Y-130174628D01*
X151604095Y-130174628D02*
X151651714Y-130222247D01*
X151651714Y-130222247D02*
X151746952Y-130269866D01*
X151746952Y-130269866D02*
X151937428Y-130269866D01*
X151937428Y-130269866D02*
X152032666Y-130222247D01*
X152032666Y-130222247D02*
X152080285Y-130174628D01*
X152080285Y-130174628D02*
X152127904Y-130079390D01*
X127388666Y-106405819D02*
X127388666Y-107120104D01*
X127388666Y-107120104D02*
X127341047Y-107262961D01*
X127341047Y-107262961D02*
X127245809Y-107358200D01*
X127245809Y-107358200D02*
X127102952Y-107405819D01*
X127102952Y-107405819D02*
X127007714Y-107405819D01*
X127912476Y-107405819D02*
X128102952Y-107405819D01*
X128102952Y-107405819D02*
X128198190Y-107358200D01*
X128198190Y-107358200D02*
X128245809Y-107310580D01*
X128245809Y-107310580D02*
X128341047Y-107167723D01*
X128341047Y-107167723D02*
X128388666Y-106977247D01*
X128388666Y-106977247D02*
X128388666Y-106596295D01*
X128388666Y-106596295D02*
X128341047Y-106501057D01*
X128341047Y-106501057D02*
X128293428Y-106453438D01*
X128293428Y-106453438D02*
X128198190Y-106405819D01*
X128198190Y-106405819D02*
X128007714Y-106405819D01*
X128007714Y-106405819D02*
X127912476Y-106453438D01*
X127912476Y-106453438D02*
X127864857Y-106501057D01*
X127864857Y-106501057D02*
X127817238Y-106596295D01*
X127817238Y-106596295D02*
X127817238Y-106834390D01*
X127817238Y-106834390D02*
X127864857Y-106929628D01*
X127864857Y-106929628D02*
X127912476Y-106977247D01*
X127912476Y-106977247D02*
X128007714Y-107024866D01*
X128007714Y-107024866D02*
X128198190Y-107024866D01*
X128198190Y-107024866D02*
X128293428Y-106977247D01*
X128293428Y-106977247D02*
X128341047Y-106929628D01*
X128341047Y-106929628D02*
X128388666Y-106834390D01*
X149947333Y-115262819D02*
X149614000Y-114786628D01*
X149375905Y-115262819D02*
X149375905Y-114262819D01*
X149375905Y-114262819D02*
X149756857Y-114262819D01*
X149756857Y-114262819D02*
X149852095Y-114310438D01*
X149852095Y-114310438D02*
X149899714Y-114358057D01*
X149899714Y-114358057D02*
X149947333Y-114453295D01*
X149947333Y-114453295D02*
X149947333Y-114596152D01*
X149947333Y-114596152D02*
X149899714Y-114691390D01*
X149899714Y-114691390D02*
X149852095Y-114739009D01*
X149852095Y-114739009D02*
X149756857Y-114786628D01*
X149756857Y-114786628D02*
X149375905Y-114786628D01*
X150804476Y-114262819D02*
X150614000Y-114262819D01*
X150614000Y-114262819D02*
X150518762Y-114310438D01*
X150518762Y-114310438D02*
X150471143Y-114358057D01*
X150471143Y-114358057D02*
X150375905Y-114500914D01*
X150375905Y-114500914D02*
X150328286Y-114691390D01*
X150328286Y-114691390D02*
X150328286Y-115072342D01*
X150328286Y-115072342D02*
X150375905Y-115167580D01*
X150375905Y-115167580D02*
X150423524Y-115215200D01*
X150423524Y-115215200D02*
X150518762Y-115262819D01*
X150518762Y-115262819D02*
X150709238Y-115262819D01*
X150709238Y-115262819D02*
X150804476Y-115215200D01*
X150804476Y-115215200D02*
X150852095Y-115167580D01*
X150852095Y-115167580D02*
X150899714Y-115072342D01*
X150899714Y-115072342D02*
X150899714Y-114834247D01*
X150899714Y-114834247D02*
X150852095Y-114739009D01*
X150852095Y-114739009D02*
X150804476Y-114691390D01*
X150804476Y-114691390D02*
X150709238Y-114643771D01*
X150709238Y-114643771D02*
X150518762Y-114643771D01*
X150518762Y-114643771D02*
X150423524Y-114691390D01*
X150423524Y-114691390D02*
X150375905Y-114739009D01*
X150375905Y-114739009D02*
X150328286Y-114834247D01*
X146423142Y-102721580D02*
X146375523Y-102769200D01*
X146375523Y-102769200D02*
X146232666Y-102816819D01*
X146232666Y-102816819D02*
X146137428Y-102816819D01*
X146137428Y-102816819D02*
X145994571Y-102769200D01*
X145994571Y-102769200D02*
X145899333Y-102673961D01*
X145899333Y-102673961D02*
X145851714Y-102578723D01*
X145851714Y-102578723D02*
X145804095Y-102388247D01*
X145804095Y-102388247D02*
X145804095Y-102245390D01*
X145804095Y-102245390D02*
X145851714Y-102054914D01*
X145851714Y-102054914D02*
X145899333Y-101959676D01*
X145899333Y-101959676D02*
X145994571Y-101864438D01*
X145994571Y-101864438D02*
X146137428Y-101816819D01*
X146137428Y-101816819D02*
X146232666Y-101816819D01*
X146232666Y-101816819D02*
X146375523Y-101864438D01*
X146375523Y-101864438D02*
X146423142Y-101912057D01*
X146804095Y-101912057D02*
X146851714Y-101864438D01*
X146851714Y-101864438D02*
X146946952Y-101816819D01*
X146946952Y-101816819D02*
X147185047Y-101816819D01*
X147185047Y-101816819D02*
X147280285Y-101864438D01*
X147280285Y-101864438D02*
X147327904Y-101912057D01*
X147327904Y-101912057D02*
X147375523Y-102007295D01*
X147375523Y-102007295D02*
X147375523Y-102102533D01*
X147375523Y-102102533D02*
X147327904Y-102245390D01*
X147327904Y-102245390D02*
X146756476Y-102816819D01*
X146756476Y-102816819D02*
X147375523Y-102816819D01*
X147708857Y-101816819D02*
X148327904Y-101816819D01*
X148327904Y-101816819D02*
X147994571Y-102197771D01*
X147994571Y-102197771D02*
X148137428Y-102197771D01*
X148137428Y-102197771D02*
X148232666Y-102245390D01*
X148232666Y-102245390D02*
X148280285Y-102293009D01*
X148280285Y-102293009D02*
X148327904Y-102388247D01*
X148327904Y-102388247D02*
X148327904Y-102626342D01*
X148327904Y-102626342D02*
X148280285Y-102721580D01*
X148280285Y-102721580D02*
X148232666Y-102769200D01*
X148232666Y-102769200D02*
X148137428Y-102816819D01*
X148137428Y-102816819D02*
X147851714Y-102816819D01*
X147851714Y-102816819D02*
X147756476Y-102769200D01*
X147756476Y-102769200D02*
X147708857Y-102721580D01*
X131165142Y-119664580D02*
X131117523Y-119712200D01*
X131117523Y-119712200D02*
X130974666Y-119759819D01*
X130974666Y-119759819D02*
X130879428Y-119759819D01*
X130879428Y-119759819D02*
X130736571Y-119712200D01*
X130736571Y-119712200D02*
X130641333Y-119616961D01*
X130641333Y-119616961D02*
X130593714Y-119521723D01*
X130593714Y-119521723D02*
X130546095Y-119331247D01*
X130546095Y-119331247D02*
X130546095Y-119188390D01*
X130546095Y-119188390D02*
X130593714Y-118997914D01*
X130593714Y-118997914D02*
X130641333Y-118902676D01*
X130641333Y-118902676D02*
X130736571Y-118807438D01*
X130736571Y-118807438D02*
X130879428Y-118759819D01*
X130879428Y-118759819D02*
X130974666Y-118759819D01*
X130974666Y-118759819D02*
X131117523Y-118807438D01*
X131117523Y-118807438D02*
X131165142Y-118855057D01*
X131546095Y-118855057D02*
X131593714Y-118807438D01*
X131593714Y-118807438D02*
X131688952Y-118759819D01*
X131688952Y-118759819D02*
X131927047Y-118759819D01*
X131927047Y-118759819D02*
X132022285Y-118807438D01*
X132022285Y-118807438D02*
X132069904Y-118855057D01*
X132069904Y-118855057D02*
X132117523Y-118950295D01*
X132117523Y-118950295D02*
X132117523Y-119045533D01*
X132117523Y-119045533D02*
X132069904Y-119188390D01*
X132069904Y-119188390D02*
X131498476Y-119759819D01*
X131498476Y-119759819D02*
X132117523Y-119759819D01*
X133022285Y-118759819D02*
X132546095Y-118759819D01*
X132546095Y-118759819D02*
X132498476Y-119236009D01*
X132498476Y-119236009D02*
X132546095Y-119188390D01*
X132546095Y-119188390D02*
X132641333Y-119140771D01*
X132641333Y-119140771D02*
X132879428Y-119140771D01*
X132879428Y-119140771D02*
X132974666Y-119188390D01*
X132974666Y-119188390D02*
X133022285Y-119236009D01*
X133022285Y-119236009D02*
X133069904Y-119331247D01*
X133069904Y-119331247D02*
X133069904Y-119569342D01*
X133069904Y-119569342D02*
X133022285Y-119664580D01*
X133022285Y-119664580D02*
X132974666Y-119712200D01*
X132974666Y-119712200D02*
X132879428Y-119759819D01*
X132879428Y-119759819D02*
X132641333Y-119759819D01*
X132641333Y-119759819D02*
X132546095Y-119712200D01*
X132546095Y-119712200D02*
X132498476Y-119664580D01*
X121158333Y-120354819D02*
X120825000Y-119878628D01*
X120586905Y-120354819D02*
X120586905Y-119354819D01*
X120586905Y-119354819D02*
X120967857Y-119354819D01*
X120967857Y-119354819D02*
X121063095Y-119402438D01*
X121063095Y-119402438D02*
X121110714Y-119450057D01*
X121110714Y-119450057D02*
X121158333Y-119545295D01*
X121158333Y-119545295D02*
X121158333Y-119688152D01*
X121158333Y-119688152D02*
X121110714Y-119783390D01*
X121110714Y-119783390D02*
X121063095Y-119831009D01*
X121063095Y-119831009D02*
X120967857Y-119878628D01*
X120967857Y-119878628D02*
X120586905Y-119878628D01*
X122110714Y-120354819D02*
X121539286Y-120354819D01*
X121825000Y-120354819D02*
X121825000Y-119354819D01*
X121825000Y-119354819D02*
X121729762Y-119497676D01*
X121729762Y-119497676D02*
X121634524Y-119592914D01*
X121634524Y-119592914D02*
X121539286Y-119640533D01*
X123061905Y-120579819D02*
X123061905Y-119579819D01*
X123061905Y-119579819D02*
X123300000Y-119579819D01*
X123300000Y-119579819D02*
X123442857Y-119627438D01*
X123442857Y-119627438D02*
X123538095Y-119722676D01*
X123538095Y-119722676D02*
X123585714Y-119817914D01*
X123585714Y-119817914D02*
X123633333Y-120008390D01*
X123633333Y-120008390D02*
X123633333Y-120151247D01*
X123633333Y-120151247D02*
X123585714Y-120341723D01*
X123585714Y-120341723D02*
X123538095Y-120436961D01*
X123538095Y-120436961D02*
X123442857Y-120532200D01*
X123442857Y-120532200D02*
X123300000Y-120579819D01*
X123300000Y-120579819D02*
X123061905Y-120579819D01*
X124014286Y-119675057D02*
X124061905Y-119627438D01*
X124061905Y-119627438D02*
X124157143Y-119579819D01*
X124157143Y-119579819D02*
X124395238Y-119579819D01*
X124395238Y-119579819D02*
X124490476Y-119627438D01*
X124490476Y-119627438D02*
X124538095Y-119675057D01*
X124538095Y-119675057D02*
X124585714Y-119770295D01*
X124585714Y-119770295D02*
X124585714Y-119865533D01*
X124585714Y-119865533D02*
X124538095Y-120008390D01*
X124538095Y-120008390D02*
X123966667Y-120579819D01*
X123966667Y-120579819D02*
X124585714Y-120579819D01*
X133207333Y-137360819D02*
X132874000Y-136884628D01*
X132635905Y-137360819D02*
X132635905Y-136360819D01*
X132635905Y-136360819D02*
X133016857Y-136360819D01*
X133016857Y-136360819D02*
X133112095Y-136408438D01*
X133112095Y-136408438D02*
X133159714Y-136456057D01*
X133159714Y-136456057D02*
X133207333Y-136551295D01*
X133207333Y-136551295D02*
X133207333Y-136694152D01*
X133207333Y-136694152D02*
X133159714Y-136789390D01*
X133159714Y-136789390D02*
X133112095Y-136837009D01*
X133112095Y-136837009D02*
X133016857Y-136884628D01*
X133016857Y-136884628D02*
X132635905Y-136884628D01*
X133588286Y-136456057D02*
X133635905Y-136408438D01*
X133635905Y-136408438D02*
X133731143Y-136360819D01*
X133731143Y-136360819D02*
X133969238Y-136360819D01*
X133969238Y-136360819D02*
X134064476Y-136408438D01*
X134064476Y-136408438D02*
X134112095Y-136456057D01*
X134112095Y-136456057D02*
X134159714Y-136551295D01*
X134159714Y-136551295D02*
X134159714Y-136646533D01*
X134159714Y-136646533D02*
X134112095Y-136789390D01*
X134112095Y-136789390D02*
X133540667Y-137360819D01*
X133540667Y-137360819D02*
X134159714Y-137360819D01*
X170180095Y-108611200D02*
X170322952Y-108658819D01*
X170322952Y-108658819D02*
X170561047Y-108658819D01*
X170561047Y-108658819D02*
X170656285Y-108611200D01*
X170656285Y-108611200D02*
X170703904Y-108563580D01*
X170703904Y-108563580D02*
X170751523Y-108468342D01*
X170751523Y-108468342D02*
X170751523Y-108373104D01*
X170751523Y-108373104D02*
X170703904Y-108277866D01*
X170703904Y-108277866D02*
X170656285Y-108230247D01*
X170656285Y-108230247D02*
X170561047Y-108182628D01*
X170561047Y-108182628D02*
X170370571Y-108135009D01*
X170370571Y-108135009D02*
X170275333Y-108087390D01*
X170275333Y-108087390D02*
X170227714Y-108039771D01*
X170227714Y-108039771D02*
X170180095Y-107944533D01*
X170180095Y-107944533D02*
X170180095Y-107849295D01*
X170180095Y-107849295D02*
X170227714Y-107754057D01*
X170227714Y-107754057D02*
X170275333Y-107706438D01*
X170275333Y-107706438D02*
X170370571Y-107658819D01*
X170370571Y-107658819D02*
X170608666Y-107658819D01*
X170608666Y-107658819D02*
X170751523Y-107706438D01*
X171084857Y-107658819D02*
X171703904Y-107658819D01*
X171703904Y-107658819D02*
X171370571Y-108039771D01*
X171370571Y-108039771D02*
X171513428Y-108039771D01*
X171513428Y-108039771D02*
X171608666Y-108087390D01*
X171608666Y-108087390D02*
X171656285Y-108135009D01*
X171656285Y-108135009D02*
X171703904Y-108230247D01*
X171703904Y-108230247D02*
X171703904Y-108468342D01*
X171703904Y-108468342D02*
X171656285Y-108563580D01*
X171656285Y-108563580D02*
X171608666Y-108611200D01*
X171608666Y-108611200D02*
X171513428Y-108658819D01*
X171513428Y-108658819D02*
X171227714Y-108658819D01*
X171227714Y-108658819D02*
X171132476Y-108611200D01*
X171132476Y-108611200D02*
X171084857Y-108563580D01*
X153789809Y-128374628D02*
X153789809Y-128850819D01*
X153456476Y-127850819D02*
X153789809Y-128374628D01*
X153789809Y-128374628D02*
X154123142Y-127850819D01*
X154361238Y-127850819D02*
X154980285Y-127850819D01*
X154980285Y-127850819D02*
X154646952Y-128231771D01*
X154646952Y-128231771D02*
X154789809Y-128231771D01*
X154789809Y-128231771D02*
X154885047Y-128279390D01*
X154885047Y-128279390D02*
X154932666Y-128327009D01*
X154932666Y-128327009D02*
X154980285Y-128422247D01*
X154980285Y-128422247D02*
X154980285Y-128660342D01*
X154980285Y-128660342D02*
X154932666Y-128755580D01*
X154932666Y-128755580D02*
X154885047Y-128803200D01*
X154885047Y-128803200D02*
X154789809Y-128850819D01*
X154789809Y-128850819D02*
X154504095Y-128850819D01*
X154504095Y-128850819D02*
X154408857Y-128803200D01*
X154408857Y-128803200D02*
X154361238Y-128755580D01*
X111426666Y-143566819D02*
X111426666Y-144281104D01*
X111426666Y-144281104D02*
X111379047Y-144423961D01*
X111379047Y-144423961D02*
X111283809Y-144519200D01*
X111283809Y-144519200D02*
X111140952Y-144566819D01*
X111140952Y-144566819D02*
X111045714Y-144566819D01*
X112426666Y-144566819D02*
X111855238Y-144566819D01*
X112140952Y-144566819D02*
X112140952Y-143566819D01*
X112140952Y-143566819D02*
X112045714Y-143709676D01*
X112045714Y-143709676D02*
X111950476Y-143804914D01*
X111950476Y-143804914D02*
X111855238Y-143852533D01*
X163695142Y-106531580D02*
X163647523Y-106579200D01*
X163647523Y-106579200D02*
X163504666Y-106626819D01*
X163504666Y-106626819D02*
X163409428Y-106626819D01*
X163409428Y-106626819D02*
X163266571Y-106579200D01*
X163266571Y-106579200D02*
X163171333Y-106483961D01*
X163171333Y-106483961D02*
X163123714Y-106388723D01*
X163123714Y-106388723D02*
X163076095Y-106198247D01*
X163076095Y-106198247D02*
X163076095Y-106055390D01*
X163076095Y-106055390D02*
X163123714Y-105864914D01*
X163123714Y-105864914D02*
X163171333Y-105769676D01*
X163171333Y-105769676D02*
X163266571Y-105674438D01*
X163266571Y-105674438D02*
X163409428Y-105626819D01*
X163409428Y-105626819D02*
X163504666Y-105626819D01*
X163504666Y-105626819D02*
X163647523Y-105674438D01*
X163647523Y-105674438D02*
X163695142Y-105722057D01*
X164647523Y-106626819D02*
X164076095Y-106626819D01*
X164361809Y-106626819D02*
X164361809Y-105626819D01*
X164361809Y-105626819D02*
X164266571Y-105769676D01*
X164266571Y-105769676D02*
X164171333Y-105864914D01*
X164171333Y-105864914D02*
X164076095Y-105912533D01*
X164980857Y-105626819D02*
X165599904Y-105626819D01*
X165599904Y-105626819D02*
X165266571Y-106007771D01*
X165266571Y-106007771D02*
X165409428Y-106007771D01*
X165409428Y-106007771D02*
X165504666Y-106055390D01*
X165504666Y-106055390D02*
X165552285Y-106103009D01*
X165552285Y-106103009D02*
X165599904Y-106198247D01*
X165599904Y-106198247D02*
X165599904Y-106436342D01*
X165599904Y-106436342D02*
X165552285Y-106531580D01*
X165552285Y-106531580D02*
X165504666Y-106579200D01*
X165504666Y-106579200D02*
X165409428Y-106626819D01*
X165409428Y-106626819D02*
X165123714Y-106626819D01*
X165123714Y-106626819D02*
X165028476Y-106579200D01*
X165028476Y-106579200D02*
X164980857Y-106531580D01*
X133120095Y-141660200D02*
X133262952Y-141707819D01*
X133262952Y-141707819D02*
X133501047Y-141707819D01*
X133501047Y-141707819D02*
X133596285Y-141660200D01*
X133596285Y-141660200D02*
X133643904Y-141612580D01*
X133643904Y-141612580D02*
X133691523Y-141517342D01*
X133691523Y-141517342D02*
X133691523Y-141422104D01*
X133691523Y-141422104D02*
X133643904Y-141326866D01*
X133643904Y-141326866D02*
X133596285Y-141279247D01*
X133596285Y-141279247D02*
X133501047Y-141231628D01*
X133501047Y-141231628D02*
X133310571Y-141184009D01*
X133310571Y-141184009D02*
X133215333Y-141136390D01*
X133215333Y-141136390D02*
X133167714Y-141088771D01*
X133167714Y-141088771D02*
X133120095Y-140993533D01*
X133120095Y-140993533D02*
X133120095Y-140898295D01*
X133120095Y-140898295D02*
X133167714Y-140803057D01*
X133167714Y-140803057D02*
X133215333Y-140755438D01*
X133215333Y-140755438D02*
X133310571Y-140707819D01*
X133310571Y-140707819D02*
X133548666Y-140707819D01*
X133548666Y-140707819D02*
X133691523Y-140755438D01*
X134548666Y-141041152D02*
X134548666Y-141707819D01*
X134310571Y-140660200D02*
X134072476Y-141374485D01*
X134072476Y-141374485D02*
X134691523Y-141374485D01*
X127833333Y-123558819D02*
X127500000Y-123082628D01*
X127261905Y-123558819D02*
X127261905Y-122558819D01*
X127261905Y-122558819D02*
X127642857Y-122558819D01*
X127642857Y-122558819D02*
X127738095Y-122606438D01*
X127738095Y-122606438D02*
X127785714Y-122654057D01*
X127785714Y-122654057D02*
X127833333Y-122749295D01*
X127833333Y-122749295D02*
X127833333Y-122892152D01*
X127833333Y-122892152D02*
X127785714Y-122987390D01*
X127785714Y-122987390D02*
X127738095Y-123035009D01*
X127738095Y-123035009D02*
X127642857Y-123082628D01*
X127642857Y-123082628D02*
X127261905Y-123082628D01*
X128166667Y-122558819D02*
X128785714Y-122558819D01*
X128785714Y-122558819D02*
X128452381Y-122939771D01*
X128452381Y-122939771D02*
X128595238Y-122939771D01*
X128595238Y-122939771D02*
X128690476Y-122987390D01*
X128690476Y-122987390D02*
X128738095Y-123035009D01*
X128738095Y-123035009D02*
X128785714Y-123130247D01*
X128785714Y-123130247D02*
X128785714Y-123368342D01*
X128785714Y-123368342D02*
X128738095Y-123463580D01*
X128738095Y-123463580D02*
X128690476Y-123511200D01*
X128690476Y-123511200D02*
X128595238Y-123558819D01*
X128595238Y-123558819D02*
X128309524Y-123558819D01*
X128309524Y-123558819D02*
X128214286Y-123511200D01*
X128214286Y-123511200D02*
X128166667Y-123463580D01*
X118792666Y-135598819D02*
X118792666Y-136313104D01*
X118792666Y-136313104D02*
X118745047Y-136455961D01*
X118745047Y-136455961D02*
X118649809Y-136551200D01*
X118649809Y-136551200D02*
X118506952Y-136598819D01*
X118506952Y-136598819D02*
X118411714Y-136598819D01*
X119411714Y-136027390D02*
X119316476Y-135979771D01*
X119316476Y-135979771D02*
X119268857Y-135932152D01*
X119268857Y-135932152D02*
X119221238Y-135836914D01*
X119221238Y-135836914D02*
X119221238Y-135789295D01*
X119221238Y-135789295D02*
X119268857Y-135694057D01*
X119268857Y-135694057D02*
X119316476Y-135646438D01*
X119316476Y-135646438D02*
X119411714Y-135598819D01*
X119411714Y-135598819D02*
X119602190Y-135598819D01*
X119602190Y-135598819D02*
X119697428Y-135646438D01*
X119697428Y-135646438D02*
X119745047Y-135694057D01*
X119745047Y-135694057D02*
X119792666Y-135789295D01*
X119792666Y-135789295D02*
X119792666Y-135836914D01*
X119792666Y-135836914D02*
X119745047Y-135932152D01*
X119745047Y-135932152D02*
X119697428Y-135979771D01*
X119697428Y-135979771D02*
X119602190Y-136027390D01*
X119602190Y-136027390D02*
X119411714Y-136027390D01*
X119411714Y-136027390D02*
X119316476Y-136075009D01*
X119316476Y-136075009D02*
X119268857Y-136122628D01*
X119268857Y-136122628D02*
X119221238Y-136217866D01*
X119221238Y-136217866D02*
X119221238Y-136408342D01*
X119221238Y-136408342D02*
X119268857Y-136503580D01*
X119268857Y-136503580D02*
X119316476Y-136551200D01*
X119316476Y-136551200D02*
X119411714Y-136598819D01*
X119411714Y-136598819D02*
X119602190Y-136598819D01*
X119602190Y-136598819D02*
X119697428Y-136551200D01*
X119697428Y-136551200D02*
X119745047Y-136503580D01*
X119745047Y-136503580D02*
X119792666Y-136408342D01*
X119792666Y-136408342D02*
X119792666Y-136217866D01*
X119792666Y-136217866D02*
X119745047Y-136122628D01*
X119745047Y-136122628D02*
X119697428Y-136075009D01*
X119697428Y-136075009D02*
X119602190Y-136027390D01*
X146423142Y-111887080D02*
X146375523Y-111934700D01*
X146375523Y-111934700D02*
X146232666Y-111982319D01*
X146232666Y-111982319D02*
X146137428Y-111982319D01*
X146137428Y-111982319D02*
X145994571Y-111934700D01*
X145994571Y-111934700D02*
X145899333Y-111839461D01*
X145899333Y-111839461D02*
X145851714Y-111744223D01*
X145851714Y-111744223D02*
X145804095Y-111553747D01*
X145804095Y-111553747D02*
X145804095Y-111410890D01*
X145804095Y-111410890D02*
X145851714Y-111220414D01*
X145851714Y-111220414D02*
X145899333Y-111125176D01*
X145899333Y-111125176D02*
X145994571Y-111029938D01*
X145994571Y-111029938D02*
X146137428Y-110982319D01*
X146137428Y-110982319D02*
X146232666Y-110982319D01*
X146232666Y-110982319D02*
X146375523Y-111029938D01*
X146375523Y-111029938D02*
X146423142Y-111077557D01*
X147375523Y-111982319D02*
X146804095Y-111982319D01*
X147089809Y-111982319D02*
X147089809Y-110982319D01*
X147089809Y-110982319D02*
X146994571Y-111125176D01*
X146994571Y-111125176D02*
X146899333Y-111220414D01*
X146899333Y-111220414D02*
X146804095Y-111268033D01*
X148232666Y-110982319D02*
X148042190Y-110982319D01*
X148042190Y-110982319D02*
X147946952Y-111029938D01*
X147946952Y-111029938D02*
X147899333Y-111077557D01*
X147899333Y-111077557D02*
X147804095Y-111220414D01*
X147804095Y-111220414D02*
X147756476Y-111410890D01*
X147756476Y-111410890D02*
X147756476Y-111791842D01*
X147756476Y-111791842D02*
X147804095Y-111887080D01*
X147804095Y-111887080D02*
X147851714Y-111934700D01*
X147851714Y-111934700D02*
X147946952Y-111982319D01*
X147946952Y-111982319D02*
X148137428Y-111982319D01*
X148137428Y-111982319D02*
X148232666Y-111934700D01*
X148232666Y-111934700D02*
X148280285Y-111887080D01*
X148280285Y-111887080D02*
X148327904Y-111791842D01*
X148327904Y-111791842D02*
X148327904Y-111553747D01*
X148327904Y-111553747D02*
X148280285Y-111458509D01*
X148280285Y-111458509D02*
X148232666Y-111410890D01*
X148232666Y-111410890D02*
X148137428Y-111363271D01*
X148137428Y-111363271D02*
X147946952Y-111363271D01*
X147946952Y-111363271D02*
X147851714Y-111410890D01*
X147851714Y-111410890D02*
X147804095Y-111458509D01*
X147804095Y-111458509D02*
X147756476Y-111553747D01*
X144595333Y-131094580D02*
X144547714Y-131142200D01*
X144547714Y-131142200D02*
X144404857Y-131189819D01*
X144404857Y-131189819D02*
X144309619Y-131189819D01*
X144309619Y-131189819D02*
X144166762Y-131142200D01*
X144166762Y-131142200D02*
X144071524Y-131046961D01*
X144071524Y-131046961D02*
X144023905Y-130951723D01*
X144023905Y-130951723D02*
X143976286Y-130761247D01*
X143976286Y-130761247D02*
X143976286Y-130618390D01*
X143976286Y-130618390D02*
X144023905Y-130427914D01*
X144023905Y-130427914D02*
X144071524Y-130332676D01*
X144071524Y-130332676D02*
X144166762Y-130237438D01*
X144166762Y-130237438D02*
X144309619Y-130189819D01*
X144309619Y-130189819D02*
X144404857Y-130189819D01*
X144404857Y-130189819D02*
X144547714Y-130237438D01*
X144547714Y-130237438D02*
X144595333Y-130285057D01*
X144928667Y-130189819D02*
X145547714Y-130189819D01*
X145547714Y-130189819D02*
X145214381Y-130570771D01*
X145214381Y-130570771D02*
X145357238Y-130570771D01*
X145357238Y-130570771D02*
X145452476Y-130618390D01*
X145452476Y-130618390D02*
X145500095Y-130666009D01*
X145500095Y-130666009D02*
X145547714Y-130761247D01*
X145547714Y-130761247D02*
X145547714Y-130999342D01*
X145547714Y-130999342D02*
X145500095Y-131094580D01*
X145500095Y-131094580D02*
X145452476Y-131142200D01*
X145452476Y-131142200D02*
X145357238Y-131189819D01*
X145357238Y-131189819D02*
X145071524Y-131189819D01*
X145071524Y-131189819D02*
X144976286Y-131142200D01*
X144976286Y-131142200D02*
X144928667Y-131094580D01*
X180280666Y-98531819D02*
X180280666Y-99246104D01*
X180280666Y-99246104D02*
X180233047Y-99388961D01*
X180233047Y-99388961D02*
X180137809Y-99484200D01*
X180137809Y-99484200D02*
X179994952Y-99531819D01*
X179994952Y-99531819D02*
X179899714Y-99531819D01*
X180661619Y-98531819D02*
X181328285Y-98531819D01*
X181328285Y-98531819D02*
X180899714Y-99531819D01*
X137004333Y-110475819D02*
X136671000Y-109999628D01*
X136432905Y-110475819D02*
X136432905Y-109475819D01*
X136432905Y-109475819D02*
X136813857Y-109475819D01*
X136813857Y-109475819D02*
X136909095Y-109523438D01*
X136909095Y-109523438D02*
X136956714Y-109571057D01*
X136956714Y-109571057D02*
X137004333Y-109666295D01*
X137004333Y-109666295D02*
X137004333Y-109809152D01*
X137004333Y-109809152D02*
X136956714Y-109904390D01*
X136956714Y-109904390D02*
X136909095Y-109952009D01*
X136909095Y-109952009D02*
X136813857Y-109999628D01*
X136813857Y-109999628D02*
X136432905Y-109999628D01*
X137480524Y-110475819D02*
X137671000Y-110475819D01*
X137671000Y-110475819D02*
X137766238Y-110428200D01*
X137766238Y-110428200D02*
X137813857Y-110380580D01*
X137813857Y-110380580D02*
X137909095Y-110237723D01*
X137909095Y-110237723D02*
X137956714Y-110047247D01*
X137956714Y-110047247D02*
X137956714Y-109666295D01*
X137956714Y-109666295D02*
X137909095Y-109571057D01*
X137909095Y-109571057D02*
X137861476Y-109523438D01*
X137861476Y-109523438D02*
X137766238Y-109475819D01*
X137766238Y-109475819D02*
X137575762Y-109475819D01*
X137575762Y-109475819D02*
X137480524Y-109523438D01*
X137480524Y-109523438D02*
X137432905Y-109571057D01*
X137432905Y-109571057D02*
X137385286Y-109666295D01*
X137385286Y-109666295D02*
X137385286Y-109904390D01*
X137385286Y-109904390D02*
X137432905Y-109999628D01*
X137432905Y-109999628D02*
X137480524Y-110047247D01*
X137480524Y-110047247D02*
X137575762Y-110094866D01*
X137575762Y-110094866D02*
X137766238Y-110094866D01*
X137766238Y-110094866D02*
X137861476Y-110047247D01*
X137861476Y-110047247D02*
X137909095Y-109999628D01*
X137909095Y-109999628D02*
X137956714Y-109904390D01*
X138684095Y-123450819D02*
X138684095Y-124260342D01*
X138684095Y-124260342D02*
X138731714Y-124355580D01*
X138731714Y-124355580D02*
X138779333Y-124403200D01*
X138779333Y-124403200D02*
X138874571Y-124450819D01*
X138874571Y-124450819D02*
X139065047Y-124450819D01*
X139065047Y-124450819D02*
X139160285Y-124403200D01*
X139160285Y-124403200D02*
X139207904Y-124355580D01*
X139207904Y-124355580D02*
X139255523Y-124260342D01*
X139255523Y-124260342D02*
X139255523Y-123450819D01*
X140255523Y-124450819D02*
X139684095Y-124450819D01*
X139969809Y-124450819D02*
X139969809Y-123450819D01*
X139969809Y-123450819D02*
X139874571Y-123593676D01*
X139874571Y-123593676D02*
X139779333Y-123688914D01*
X139779333Y-123688914D02*
X139684095Y-123736533D01*
%TO.C,C26*%
D13*
X161551252Y-129313000D02*
X161028748Y-129313000D01*
X161551252Y-130783000D02*
X161028748Y-130783000D01*
%TO.C,U2*%
X177326000Y-116186000D02*
X182846000Y-116186000D01*
X177326000Y-116361000D02*
X177326000Y-116186000D01*
X177326000Y-124606000D02*
X177326000Y-124431000D01*
X182846000Y-116186000D02*
X182846000Y-116361000D01*
X182846000Y-124431000D02*
X182846000Y-124606000D01*
X182846000Y-124606000D02*
X177326000Y-124606000D01*
X183926000Y-124906000D02*
X183246000Y-124906000D01*
X183586000Y-124436000D01*
X183926000Y-124906000D01*
G36*
X183926000Y-124906000D02*
G01*
X183246000Y-124906000D01*
X183586000Y-124436000D01*
X183926000Y-124906000D01*
G37*
%TO.C,C1*%
X143778248Y-115089000D02*
X144300752Y-115089000D01*
X143778248Y-116559000D02*
X144300752Y-116559000D01*
%TO.C,D3*%
X156734000Y-115260000D02*
X159594000Y-115260000D01*
X159594000Y-113340000D02*
X156734000Y-113340000D01*
X159594000Y-115260000D02*
X159594000Y-113340000D01*
%TO.C,R4*%
X127772936Y-126519000D02*
X128227064Y-126519000D01*
X127772936Y-127989000D02*
X128227064Y-127989000D01*
%TO.C,SW2*%
D10*
X163858000Y-136192000D02*
X164608000Y-136192000D01*
X163858000Y-142192000D02*
X163858000Y-136192000D01*
X164608000Y-142192000D02*
X163858000Y-142192000D01*
D14*
D15*
X165508000Y-144092000D02*
X165507999Y-144092000D01*
X165507999Y-144092000D01*
X165507999Y-144092000D01*
X165507999Y-144092000D01*
X165507999Y-144092000D01*
X165507999Y-144092000D01*
X165507999Y-144092000D01*
X165507999Y-144091999D01*
X165507999Y-144091999D01*
X165507999Y-144091999D01*
X165507999Y-144091999D01*
X165507999Y-144091999D01*
X165508000Y-144091999D01*
X165508000Y-144091999D01*
X165508000Y-144091999D01*
X165508000Y-144091999D01*
X165508000Y-144091999D01*
X165508000Y-144091999D01*
X165508000Y-144091999D01*
X165508000Y-144091999D01*
X165508000Y-144091999D01*
X165508000Y-144091999D01*
X165508000Y-144091999D01*
X165508000Y-144091999D01*
X165508001Y-144091999D01*
X165508001Y-144091999D01*
X165508001Y-144091999D01*
X165508001Y-144091999D01*
X165508001Y-144091999D01*
X165508001Y-144091999D01*
X165508001Y-144092000D01*
X165508001Y-144092000D01*
X165508001Y-144092000D01*
X165508001Y-144092000D01*
X165508001Y-144092000D01*
X165508001Y-144092000D01*
X165508001Y-144092000D01*
X165508000Y-144092000D01*
X165508000Y-144092000D02*
X165508001Y-144092000D01*
X165508001Y-144092000D01*
X165508001Y-144092000D01*
X165508001Y-144092000D01*
X165508001Y-144092000D01*
X165508001Y-144092000D01*
X165508001Y-144092001D01*
X165508001Y-144092001D01*
X165508001Y-144092001D01*
X165508001Y-144092001D01*
X165508001Y-144092001D01*
X165508001Y-144092001D01*
X165508001Y-144092001D01*
X165508000Y-144092001D01*
X165508000Y-144092001D01*
X165508000Y-144092001D01*
X165508000Y-144092001D01*
X165508000Y-144092001D01*
X165508000Y-144092001D01*
X165508000Y-144092001D01*
X165508000Y-144092001D01*
X165508000Y-144092001D01*
X165508000Y-144092001D01*
X165508000Y-144092001D01*
X165508000Y-144092001D01*
X165507999Y-144092001D01*
X165507999Y-144092001D01*
X165507999Y-144092001D01*
X165507999Y-144092001D01*
X165507999Y-144092001D01*
X165507999Y-144092001D01*
X165507999Y-144092000D01*
X165507999Y-144092000D01*
X165507999Y-144092000D01*
X165507999Y-144092000D01*
X165507999Y-144092000D01*
X165507999Y-144092000D01*
X165508000Y-144092000D01*
D14*
D15*
X165708000Y-144092000D02*
X165707999Y-144092000D01*
X165707999Y-144092000D01*
X165707999Y-144092000D01*
X165707999Y-144092000D01*
X165707999Y-144092000D01*
X165707999Y-144092000D01*
X165707999Y-144092000D01*
X165707999Y-144091999D01*
X165707999Y-144091999D01*
X165707999Y-144091999D01*
X165707999Y-144091999D01*
X165707999Y-144091999D01*
X165708000Y-144091999D01*
X165708000Y-144091999D01*
X165708000Y-144091999D01*
X165708000Y-144091999D01*
X165708000Y-144091999D01*
X165708000Y-144091999D01*
X165708000Y-144091999D01*
X165708000Y-144091999D01*
X165708000Y-144091999D01*
X165708000Y-144091999D01*
X165708000Y-144091999D01*
X165708000Y-144091999D01*
X165708001Y-144091999D01*
X165708001Y-144091999D01*
X165708001Y-144091999D01*
X165708001Y-144091999D01*
X165708001Y-144091999D01*
X165708001Y-144091999D01*
X165708001Y-144092000D01*
X165708001Y-144092000D01*
X165708001Y-144092000D01*
X165708001Y-144092000D01*
X165708001Y-144092000D01*
X165708001Y-144092000D01*
X165708001Y-144092000D01*
X165708000Y-144092000D01*
X165708000Y-144092000D02*
X165708001Y-144092000D01*
X165708001Y-144092000D01*
X165708001Y-144092000D01*
X165708001Y-144092000D01*
X165708001Y-144092000D01*
X165708001Y-144092000D01*
X165708001Y-144092001D01*
X165708001Y-144092001D01*
X165708001Y-144092001D01*
X165708001Y-144092001D01*
X165708001Y-144092001D01*
X165708001Y-144092001D01*
X165708001Y-144092001D01*
X165708000Y-144092001D01*
X165708000Y-144092001D01*
X165708000Y-144092001D01*
X165708000Y-144092001D01*
X165708000Y-144092001D01*
X165708000Y-144092001D01*
X165708000Y-144092001D01*
X165708000Y-144092001D01*
X165708000Y-144092001D01*
X165708000Y-144092001D01*
X165708000Y-144092001D01*
X165708000Y-144092001D01*
X165707999Y-144092001D01*
X165707999Y-144092001D01*
X165707999Y-144092001D01*
X165707999Y-144092001D01*
X165707999Y-144092001D01*
X165707999Y-144092001D01*
X165707999Y-144092000D01*
X165707999Y-144092000D01*
X165707999Y-144092000D01*
X165707999Y-144092000D01*
X165707999Y-144092000D01*
X165707999Y-144092000D01*
X165708000Y-144092000D01*
D10*
X166608000Y-142192000D02*
X167358000Y-142192000D01*
X167358000Y-136192000D02*
X166608000Y-136192000D01*
X167358000Y-142192000D02*
X167358000Y-136192000D01*
D14*
X165508000Y-144092000D02*
G75*
G02*
X165708000Y-144092000I100000J0D01*
G01*
X165708000Y-144092000D02*
G75*
G02*
X165508000Y-144092000I-100000J0D01*
G01*
%TO.C,R17*%
D13*
X115289064Y-101119000D02*
X114834936Y-101119000D01*
X115289064Y-102589000D02*
X114834936Y-102589000D01*
%TO.C,C14*%
X148871000Y-107216752D02*
X148871000Y-106694248D01*
X150341000Y-107216752D02*
X150341000Y-106694248D01*
%TO.C,R10*%
X153643064Y-93753000D02*
X153188936Y-93753000D01*
X153643064Y-95223000D02*
X153188936Y-95223000D01*
%TO.C,C24*%
X147347000Y-122420748D02*
X147347000Y-122943252D01*
X148817000Y-122420748D02*
X148817000Y-122943252D01*
%TO.C,D5*%
X156988000Y-95448000D02*
X159848000Y-95448000D01*
X159848000Y-93528000D02*
X156988000Y-93528000D01*
X159848000Y-95448000D02*
X159848000Y-93528000D01*
%TO.C,D1*%
X159048000Y-128214000D02*
X159048000Y-121214000D01*
X159048000Y-128214000D02*
X164548000Y-128214000D01*
X162698000Y-122014000D02*
X160898000Y-122014000D01*
X162698000Y-127414000D02*
X160898000Y-127414000D01*
X164098000Y-121214000D02*
X159048000Y-121214000D01*
X164548000Y-121664000D02*
X164098000Y-121214000D01*
X164548000Y-128214000D02*
X164548000Y-121664000D01*
%TO.C,C7*%
X135409000Y-115323252D02*
X135409000Y-114800748D01*
X136879000Y-115323252D02*
X136879000Y-114800748D01*
%TO.C,D4*%
X131111000Y-110736000D02*
X131111000Y-112656000D01*
X131111000Y-112656000D02*
X133971000Y-112656000D01*
X133971000Y-110736000D02*
X131111000Y-110736000D01*
%TO.C,J6*%
X176006000Y-138220000D02*
X176006000Y-139470000D01*
X176306000Y-140770000D02*
X177056000Y-140770000D01*
X177056000Y-140770000D02*
X177056000Y-143720000D01*
X177056000Y-143720000D02*
X180106000Y-143720000D01*
X177256000Y-138220000D02*
X176006000Y-138220000D01*
X183156000Y-140770000D02*
X183156000Y-143720000D01*
X183156000Y-143720000D02*
X180106000Y-143720000D01*
X183906000Y-140770000D02*
X183156000Y-140770000D01*
X176296000Y-138510000D02*
X183916000Y-138510000D01*
X183916000Y-144480000D01*
X176296000Y-144480000D01*
X176296000Y-138510000D01*
X176306000Y-138520000D02*
X178106000Y-138520000D01*
X178106000Y-139270000D01*
X176306000Y-139270000D01*
X176306000Y-138520000D01*
X179606000Y-138520000D02*
X180606000Y-138520000D01*
X180606000Y-139270000D01*
X179606000Y-139270000D01*
X179606000Y-138520000D01*
X182106000Y-138520000D02*
X183906000Y-138520000D01*
X183906000Y-139270000D01*
X182106000Y-139270000D01*
X182106000Y-138520000D01*
%TO.C,C2*%
X132577252Y-114506000D02*
X132054748Y-114506000D01*
X132577252Y-115976000D02*
X132054748Y-115976000D01*
%TO.C,R8*%
X118477500Y-129245276D02*
X118477500Y-129754724D01*
X119522500Y-129245276D02*
X119522500Y-129754724D01*
%TO.C,C8*%
X181856748Y-125503000D02*
X182379252Y-125503000D01*
X181856748Y-126973000D02*
X182379252Y-126973000D01*
%TO.C,C22*%
X148871000Y-98051252D02*
X148871000Y-97528748D01*
X150341000Y-98051252D02*
X150341000Y-97528748D01*
%TO.C,U6*%
X153538000Y-105810000D02*
X153538000Y-107070000D01*
X153538000Y-112630000D02*
X153538000Y-111370000D01*
X157298000Y-105810000D02*
X153538000Y-105810000D01*
X157298000Y-112630000D02*
X153538000Y-112630000D01*
X158818000Y-112860000D02*
X158338000Y-112860000D01*
X158578000Y-112530000D01*
X158818000Y-112860000D01*
G36*
X158818000Y-112860000D02*
G01*
X158338000Y-112860000D01*
X158578000Y-112530000D01*
X158818000Y-112860000D01*
G37*
%TO.C,C21*%
X160555000Y-136136748D02*
X160555000Y-136659252D01*
X162025000Y-136136748D02*
X162025000Y-136659252D01*
%TO.C,C18*%
X161317000Y-99560748D02*
X161317000Y-100083252D01*
X162787000Y-99560748D02*
X162787000Y-100083252D01*
%TO.C,F1*%
X115113748Y-116290000D02*
X117886252Y-116290000D01*
X115113748Y-119710000D02*
X117886252Y-119710000D01*
%TO.C,U3*%
X153538000Y-96666000D02*
X153538000Y-97926000D01*
X153538000Y-103486000D02*
X153538000Y-102226000D01*
X157298000Y-96666000D02*
X153538000Y-96666000D01*
X157298000Y-103486000D02*
X153538000Y-103486000D01*
X158818000Y-103716000D02*
X158338000Y-103716000D01*
X158578000Y-103386000D01*
X158818000Y-103716000D01*
G36*
X158818000Y-103716000D02*
G01*
X158338000Y-103716000D01*
X158578000Y-103386000D01*
X158818000Y-103716000D01*
G37*
%TO.C,C20*%
X150131000Y-123209748D02*
X150131000Y-123732252D01*
X151601000Y-123209748D02*
X151601000Y-123732252D01*
%TO.C,R7*%
X118477500Y-122245276D02*
X118477500Y-122754724D01*
X119522500Y-122245276D02*
X119522500Y-122754724D01*
%TO.C,J5*%
X165318000Y-94261000D02*
X165318000Y-95511000D01*
X165618000Y-96811000D02*
X166368000Y-96811000D01*
X166368000Y-96811000D02*
X166368000Y-99761000D01*
X166368000Y-99761000D02*
X169418000Y-99761000D01*
X166568000Y-94261000D02*
X165318000Y-94261000D01*
X172468000Y-96811000D02*
X172468000Y-99761000D01*
X172468000Y-99761000D02*
X169418000Y-99761000D01*
X173218000Y-96811000D02*
X172468000Y-96811000D01*
X165608000Y-94551000D02*
X173228000Y-94551000D01*
X173228000Y-100521000D01*
X165608000Y-100521000D01*
X165608000Y-94551000D01*
X165618000Y-94561000D02*
X167418000Y-94561000D01*
X167418000Y-95311000D01*
X165618000Y-95311000D01*
X165618000Y-94561000D01*
X168918000Y-94561000D02*
X169918000Y-94561000D01*
X169918000Y-95311000D01*
X168918000Y-95311000D01*
X168918000Y-94561000D01*
X171418000Y-94561000D02*
X173218000Y-94561000D01*
X173218000Y-95311000D01*
X171418000Y-95311000D01*
X171418000Y-94561000D01*
%TO.C,C15*%
X161317000Y-111266248D02*
X161317000Y-111788752D01*
X162787000Y-111266248D02*
X162787000Y-111788752D01*
%TO.C,C17*%
X161317000Y-95765252D02*
X161317000Y-95242748D01*
X162787000Y-95765252D02*
X162787000Y-95242748D01*
%TO.C,U5*%
X121590000Y-124440000D02*
X123410000Y-124440000D01*
X121590000Y-124490000D02*
X121590000Y-124440000D01*
X121590000Y-127560000D02*
X121590000Y-127510000D01*
X123410000Y-124440000D02*
X123410000Y-124490000D01*
X123410000Y-127510000D02*
X123410000Y-127560000D01*
X123410000Y-127560000D02*
X121590000Y-127560000D01*
X121050000Y-124490000D02*
X120810000Y-124160000D01*
X121290000Y-124160000D01*
X121050000Y-124490000D01*
G36*
X121050000Y-124490000D02*
G01*
X120810000Y-124160000D01*
X121290000Y-124160000D01*
X121050000Y-124490000D01*
G37*
%TO.C,J4*%
X112716000Y-111760000D02*
X112716000Y-104080000D01*
X112716000Y-114360000D02*
X112716000Y-113030000D01*
X114046000Y-114360000D02*
X112716000Y-114360000D01*
X115316000Y-111760000D02*
X112716000Y-111760000D01*
X115316000Y-114360000D02*
X115316000Y-111760000D01*
X117916000Y-104080000D02*
X112716000Y-104080000D01*
X117916000Y-114360000D02*
X115316000Y-114360000D01*
X117916000Y-114360000D02*
X117916000Y-104080000D01*
%TO.C,C6*%
X177284748Y-125503000D02*
X177807252Y-125503000D01*
X177284748Y-126973000D02*
X177807252Y-126973000D01*
%TO.C,J3*%
X114035000Y-121300000D02*
X112255000Y-121300000D01*
X114035000Y-130700000D02*
X112255000Y-130700000D01*
X116955000Y-123200000D02*
X116955000Y-122400000D01*
%TO.C,C9*%
X175892000Y-127830000D02*
X175892000Y-131250000D01*
X175892000Y-131250000D02*
X182832000Y-131250000D01*
X182832000Y-127830000D02*
X175892000Y-127830000D01*
%TO.C,C4*%
X131581000Y-130473748D02*
X131581000Y-130996252D01*
X133051000Y-130473748D02*
X133051000Y-130996252D01*
%TO.C,J2*%
X141418000Y-142434000D02*
X142748000Y-142434000D01*
X141418000Y-143764000D02*
X141418000Y-142434000D01*
X144018000Y-142434000D02*
X161858000Y-142434000D01*
X144018000Y-145094000D02*
X144018000Y-142434000D01*
X144018000Y-145094000D02*
X161858000Y-145094000D01*
X161858000Y-145094000D02*
X161858000Y-142434000D01*
%TO.C,C19*%
X150131000Y-127957252D02*
X150131000Y-127434748D01*
X151601000Y-127957252D02*
X151601000Y-127434748D01*
%TO.C,J9*%
X119872000Y-102152000D02*
X119872000Y-103402000D01*
X120172000Y-104702000D02*
X120922000Y-104702000D01*
X120922000Y-104702000D02*
X120922000Y-107652000D01*
X120922000Y-107652000D02*
X127722000Y-107652000D01*
X121122000Y-102152000D02*
X119872000Y-102152000D01*
X134522000Y-104702000D02*
X134522000Y-107652000D01*
X134522000Y-107652000D02*
X127722000Y-107652000D01*
X135272000Y-104702000D02*
X134522000Y-104702000D01*
X120162000Y-102442000D02*
X135282000Y-102442000D01*
X135282000Y-108412000D01*
X120162000Y-108412000D01*
X120162000Y-102442000D01*
X120172000Y-102452000D02*
X121972000Y-102452000D01*
X121972000Y-103202000D01*
X120172000Y-103202000D01*
X120172000Y-102452000D01*
X123472000Y-102452000D02*
X131972000Y-102452000D01*
X131972000Y-103202000D01*
X123472000Y-103202000D01*
X123472000Y-102452000D01*
X133472000Y-102452000D02*
X135272000Y-102452000D01*
X135272000Y-103202000D01*
X133472000Y-103202000D01*
X133472000Y-102452000D01*
%TO.C,R6*%
X153389064Y-113565000D02*
X152934936Y-113565000D01*
X153389064Y-115035000D02*
X152934936Y-115035000D01*
%TO.C,C23*%
X148871000Y-101846748D02*
X148871000Y-102369252D01*
X150341000Y-101846748D02*
X150341000Y-102369252D01*
%TO.C,C25*%
X132577252Y-116792000D02*
X132054748Y-116792000D01*
X132577252Y-118262000D02*
X132054748Y-118262000D01*
%TO.C,R1*%
X120490000Y-117147936D02*
X120490000Y-117602064D01*
X121960000Y-117147936D02*
X121960000Y-117602064D01*
%TO.C,D2*%
X122840000Y-116375000D02*
X122840000Y-119235000D01*
X122840000Y-119235000D02*
X124760000Y-119235000D01*
X124760000Y-119235000D02*
X124760000Y-116375000D01*
%TO.C,R2*%
X136178936Y-136171000D02*
X136633064Y-136171000D01*
X136178936Y-137641000D02*
X136633064Y-137641000D01*
%TO.C,S3*%
D16*
X167617000Y-107954000D02*
X167617000Y-108454000D01*
X167942000Y-109579000D02*
X173942000Y-109579000D01*
X169692000Y-106829000D02*
X170742000Y-106829000D01*
X174267000Y-107954000D02*
X174267000Y-108454000D01*
D14*
X168742000Y-104804000D02*
G75*
G02*
X168542000Y-104804000I-100000J0D01*
G01*
X168542000Y-104804000D02*
G75*
G02*
X168742000Y-104804000I100000J0D01*
G01*
%TO.C,Y3*%
D13*
X152556000Y-127706000D02*
X155976000Y-127706000D01*
X155976000Y-127706000D02*
X155976000Y-123586000D01*
%TO.C,J1*%
X110380000Y-140462000D02*
X110380000Y-132732000D01*
X113140000Y-132732000D02*
X110380000Y-132732000D01*
X113140000Y-140462000D02*
X110380000Y-140462000D01*
X113140000Y-140462000D02*
X113140000Y-132732000D01*
X113140000Y-141732000D02*
X113140000Y-143112000D01*
X113140000Y-143112000D02*
X111760000Y-143112000D01*
%TO.C,C13*%
X161317000Y-107470752D02*
X161317000Y-106948248D01*
X162787000Y-107470752D02*
X162787000Y-106948248D01*
%TO.C,S4*%
D16*
X130557000Y-141228000D02*
X130557000Y-141728000D01*
X130882000Y-142853000D02*
X136882000Y-142853000D01*
X132632000Y-140103000D02*
X133682000Y-140103000D01*
X137207000Y-141228000D02*
X137207000Y-141728000D01*
D14*
X131682000Y-138078000D02*
G75*
G02*
X131482000Y-138078000I-100000J0D01*
G01*
X131482000Y-138078000D02*
G75*
G02*
X131682000Y-138078000I100000J0D01*
G01*
%TO.C,R3*%
D13*
X127772936Y-124019000D02*
X128227064Y-124019000D01*
X127772936Y-125489000D02*
X128227064Y-125489000D01*
%TO.C,J8*%
X115366000Y-138139000D02*
X116116000Y-138139000D01*
X116116000Y-135189000D02*
X121666000Y-135189000D01*
X116116000Y-138139000D02*
X116116000Y-135189000D01*
X127016000Y-140689000D02*
X128266000Y-140689000D01*
X127216000Y-135189000D02*
X121666000Y-135189000D01*
X127216000Y-138139000D02*
X127216000Y-135189000D01*
X127966000Y-138139000D02*
X127216000Y-138139000D01*
X128266000Y-140689000D02*
X128266000Y-139439000D01*
X115366000Y-139639000D02*
X117166000Y-139639000D01*
X117166000Y-140389000D01*
X115366000Y-140389000D01*
X115366000Y-139639000D01*
X118666000Y-139639000D02*
X124666000Y-139639000D01*
X124666000Y-140389000D01*
X118666000Y-140389000D01*
X118666000Y-139639000D01*
X126166000Y-139639000D02*
X127966000Y-139639000D01*
X127966000Y-140389000D01*
X126166000Y-140389000D01*
X126166000Y-139639000D01*
X115356000Y-134429000D02*
X127976000Y-134429000D01*
X127976000Y-140399000D01*
X115356000Y-140399000D01*
X115356000Y-134429000D01*
%TO.C,C16*%
X148871000Y-111266248D02*
X148871000Y-111788752D01*
X150341000Y-111266248D02*
X150341000Y-111788752D01*
%TO.C,C3*%
X144246748Y-131778000D02*
X144769252Y-131778000D01*
X144246748Y-133248000D02*
X144769252Y-133248000D01*
%TO.C,J7*%
X176514000Y-94278000D02*
X176514000Y-95528000D01*
X176814000Y-96828000D02*
X177564000Y-96828000D01*
X177564000Y-96828000D02*
X177564000Y-99778000D01*
X177564000Y-99778000D02*
X180614000Y-99778000D01*
X177764000Y-94278000D02*
X176514000Y-94278000D01*
X183664000Y-96828000D02*
X183664000Y-99778000D01*
X183664000Y-99778000D02*
X180614000Y-99778000D01*
X184414000Y-96828000D02*
X183664000Y-96828000D01*
X176804000Y-94568000D02*
X184424000Y-94568000D01*
X184424000Y-100538000D01*
X176804000Y-100538000D01*
X176804000Y-94568000D01*
X176814000Y-94578000D02*
X178614000Y-94578000D01*
X178614000Y-95328000D01*
X176814000Y-95328000D01*
X176814000Y-94578000D01*
X180114000Y-94578000D02*
X181114000Y-94578000D01*
X181114000Y-95328000D01*
X180114000Y-95328000D01*
X180114000Y-94578000D01*
X182614000Y-94578000D02*
X184414000Y-94578000D01*
X184414000Y-95328000D01*
X182614000Y-95328000D01*
X182614000Y-94578000D01*
%TO.C,R9*%
X136943936Y-110936000D02*
X137398064Y-110936000D01*
X136943936Y-112406000D02*
X137398064Y-112406000D01*
%TO.C,U1*%
X134336000Y-118886000D02*
X135286000Y-118886000D01*
X134336000Y-119836000D02*
X134336000Y-118886000D01*
X134336000Y-129106000D02*
X134336000Y-128156000D01*
X135286000Y-129106000D02*
X134336000Y-129106000D01*
X143606000Y-118886000D02*
X144556000Y-118886000D01*
X144556000Y-118886000D02*
X144556000Y-119836000D01*
X144556000Y-128156000D02*
X144556000Y-129106000D01*
X144556000Y-129106000D02*
X143606000Y-129106000D01*
X145536000Y-128626000D02*
X144856000Y-128626000D01*
X145196000Y-128156000D01*
X145536000Y-128626000D01*
G36*
X145536000Y-128626000D02*
G01*
X144856000Y-128626000D01*
X145196000Y-128156000D01*
X145536000Y-128626000D01*
G37*
%TD*%
M02*
